<svg width="250" height="250" viewBox="0 0 250 250" fill="none" xmlns="http://www.w3.org/2000/svg">
<path d="M160.156 191.406V226.562L125 242.188V207.031L160.156 191.406Z" fill="#68607C"/>
<path d="M125 207.031V242.188L89.8438 226.562V191.406L125 207.031Z" fill="#ED6571"/>
<path d="M125 175.781L160.156 191.406L125 207.031L89.8438 191.406L125 175.781Z" fill="#F69489"/>
<path d="M121.094 140.625H128.906V191.406H121.094V140.625ZM121.094 70.3125H128.906V93.75H121.094V70.3125ZM75.3633 127.762L39.0625 91.4609V70.3125H46.875V88.2266L80.8867 122.238L75.3633 127.762ZM174.637 127.762L169.113 122.238L203.125 88.2266V70.3125H210.938V91.4609L174.637 127.762ZM175.781 128.906H230.469V136.719H175.781V128.906ZM226.562 171.875H185.883L157.395 143.387L162.918 137.863L189.117 164.062H226.562V171.875ZM19.5312 128.906H70.3125V136.719H19.5312V128.906ZM68.0234 171.875H23.4375V164.062H64.7891L90.9883 137.863L96.5117 143.387L68.0234 171.875Z" fill="#68607C"/>
<path d="M86.6016 148.438C78.4375 148.438 71.1719 142.461 70.3906 134.336C70.3516 133.828 70.3125 133.32 70.3125 132.812C70.3125 128.516 72.0703 124.609 74.8828 121.758C77.7344 118.945 81.6406 117.188 85.9375 117.188C86.1328 117.188 86.3281 117.227 86.5234 117.227C85.3906 112.969 85.3906 108.242 91.6406 102.109C94.4141 99.3359 98.0469 97.5781 101.953 97.6562C105.039 97.7344 107.93 98.7109 110.312 100.352C112.422 94.2578 118.164 89.8438 125 89.8438C131.836 89.8438 137.578 94.2578 139.687 100.352C142.07 98.7109 144.961 97.7344 148.047 97.6562C151.953 97.5781 155.586 99.3359 158.359 102.109C164.609 108.242 164.609 112.969 163.477 117.227C163.672 117.227 163.867 117.188 164.062 117.188C168.359 117.188 172.266 118.945 175.117 121.758C177.93 124.609 179.688 128.516 179.688 132.812C179.688 133.32 179.648 133.828 179.609 134.336C178.828 142.461 171.563 148.438 163.398 148.438H160.156V171.875C151.523 171.875 144.531 164.883 144.531 156.25V148.438H86.6016Z" fill="#FFD086"/>
<path d="M238.281 31.25V74.2188H175.781V7.8125H214.844L238.281 31.25ZM156.25 31.25V74.2188H93.75V7.8125H132.812L156.25 31.25ZM74.2188 31.25V74.2188H11.7188V7.8125H50.7812L74.2188 31.25Z" fill="#91CBD7"/>
<path d="M238.281 31.25H214.844V7.8125L238.281 31.25ZM156.25 31.25H132.812V7.8125L156.25 31.25ZM74.2188 31.25H50.7812V7.8125L74.2188 31.25Z" fill="#4E9BB9"/>
<path d="M230.469 144.531C236.941 144.531 242.188 139.285 242.188 132.812C242.188 126.34 236.941 121.094 230.469 121.094C223.997 121.094 218.75 126.34 218.75 132.812C218.75 139.285 223.997 144.531 230.469 144.531Z" fill="#91CBD7"/>
<path d="M230.469 179.688C236.941 179.688 242.188 174.441 242.188 167.969C242.188 161.497 236.941 156.25 230.469 156.25C223.997 156.25 218.75 161.497 218.75 167.969C218.75 174.441 223.997 179.688 230.469 179.688Z" fill="#91CBD7"/>
<path d="M19.5312 144.531C26.0033 144.531 31.25 139.285 31.25 132.812C31.25 126.34 26.0033 121.094 19.5312 121.094C13.0592 121.094 7.8125 126.34 7.8125 132.812C7.8125 139.285 13.0592 144.531 19.5312 144.531Z" fill="#91CBD7"/>
<path d="M19.5312 179.688C26.0033 179.688 31.25 174.441 31.25 167.969C31.25 161.497 26.0033 156.25 19.5312 156.25C13.0592 156.25 7.8125 161.497 7.8125 167.969C7.8125 174.441 13.0592 179.688 19.5312 179.688Z" fill="#91CBD7"/>
<path d="M23.4375 39.0625H62.5V46.875H23.4375V39.0625ZM23.4375 54.6875H62.5V62.5H23.4375V54.6875ZM23.4375 23.4375H42.9688V31.25H23.4375V23.4375ZM105.469 39.0625H144.531V46.875H105.469V39.0625ZM105.469 54.6875H144.531V62.5H105.469V54.6875ZM105.469 23.4375H125V31.25H105.469V23.4375ZM187.5 39.0625H226.562V46.875H187.5V39.0625ZM187.5 54.6875H226.562V62.5H187.5V54.6875ZM187.5 23.4375H207.031V31.25H187.5V23.4375Z" fill="#68607C"/>
<path d="M121.094 109.375H128.906V148.438H121.094V109.375ZM113.281 148.438H105.469V138.336L97.6562 130.523V117.188H105.469V127.289L113.281 135.102V148.438ZM144.531 148.438H136.719V135.102L144.531 127.289V117.188H152.344V130.523L144.531 138.336V148.438Z" fill="#F69489"/>
<path d="M175.781 203.125H183.594V210.938H175.781V203.125ZM191.406 203.125H199.219V210.938H191.406V203.125ZM191.406 218.75H199.219V226.562H191.406V218.75ZM191.406 187.5H199.219V195.312H191.406V187.5ZM66.4062 203.125H74.2188V210.938H66.4062V203.125ZM50.7812 203.125H58.5938V210.938H50.7812V203.125ZM50.7812 218.75H58.5938V226.562H50.7812V218.75ZM50.7812 187.5H58.5938V195.312H50.7812V187.5Z" fill="#68607C"/>
</svg>
