<svg width="250" height="250" viewBox="0 0 250 250" fill="none" xmlns="http://www.w3.org/2000/svg">
<path d="M167.969 31.25H183.594V46.875H167.969V31.25Z" fill="#EB8117"/>
<path d="M183.594 23.4375H199.219V46.875H183.594V23.4375Z" fill="#FFB854"/>
<path d="M199.219 11.7188H214.844V46.875H199.219V11.7188Z" fill="#FFD086"/>
<path d="M41.8247 116.043L36.3003 110.519L55.8315 90.9878C56.1943 90.625 56.6249 90.3373 57.0988 90.141C57.5728 89.9447 58.0808 89.8437 58.5938 89.8438H70.3125V97.6562H60.2119L41.8247 116.043ZM195.312 125C194.8 125 194.292 124.899 193.818 124.703C193.344 124.506 192.913 124.219 192.55 123.856L176.925 108.231L182.45 102.707L196.93 117.188L242.188 117.187V125L195.312 125ZM147.293 65.2622L141.769 59.7378L157.394 44.1128C157.757 43.75 158.187 43.4623 158.661 43.266C159.135 43.0697 159.643 42.9687 160.156 42.9688H226.562V50.7812H161.774L147.293 65.2622ZM83.1753 76.981L68.6943 62.5L7.8125 62.4995V54.687L70.3125 54.6875C70.8255 54.6875 71.3335 54.7885 71.8074 54.9848C72.2813 55.1811 72.712 55.4688 73.0747 55.8315L88.6997 71.4565L83.1753 76.981Z" fill="#CAD8ED"/>
<path d="M238.281 242.188H195.312L190.342 231.001L179.688 207.031V242.188H70.3125V207.031L59.6582 231.006L54.6875 242.188H11.7188L25.7812 214.062L40.3955 184.829C42.3426 180.936 45.3355 177.662 49.0387 175.374C52.742 173.086 57.0093 171.874 61.3623 171.875H188.638C192.991 171.874 197.258 173.086 200.961 175.374C204.665 177.662 207.657 180.936 209.604 184.829L224.219 214.062L238.281 242.188Z" fill="#FFCEB6"/>
<path d="M224.219 214.062L190.342 231.001L179.688 207.031V242.188H70.3125V207.031L59.6582 231.006L25.7812 214.062L40.3955 184.829C42.3426 180.936 45.3355 177.662 49.0387 175.374C52.742 173.086 57.0092 171.874 61.3623 171.875H188.638C192.991 171.874 197.258 173.086 200.961 175.374C204.665 177.662 207.657 180.936 209.604 184.829L224.219 214.062Z" fill="#91CBD7"/>
<path d="M132.812 210.938L136.719 199.219L125 191.406L113.281 199.219L117.188 210.938H132.812Z" fill="#FFB854"/>
<path d="M117.188 210.938L109.375 242.188H140.625L132.812 210.938H117.188Z" fill="#FFD086"/>
<path d="M152.344 214.844C151.53 214.844 150.736 214.59 150.074 214.116L125 196.206L99.9268 214.116C99.3427 214.533 98.6551 214.781 97.9393 214.833C97.2235 214.885 96.5072 214.739 95.869 214.411C95.2308 214.082 94.6955 213.584 94.3217 212.972C93.9479 212.359 93.7501 211.655 93.75 210.938V171.875H101.562V203.347L122.729 188.228C123.392 187.754 124.186 187.5 125 187.5C125.814 187.5 126.608 187.754 127.271 188.228L148.438 203.347V171.875H156.25V210.938C156.25 211.973 155.839 212.967 155.106 213.699C154.374 214.432 153.38 214.844 152.344 214.844Z" fill="#4E9BB9"/>
<path d="M167.969 117.188V148.438C167.969 151.546 166.734 154.526 164.536 156.724C162.339 158.922 159.358 160.156 156.25 160.156H148.79C147.357 160.156 145.929 159.999 144.531 159.687V171.875L125 191.406L105.469 171.875V117.188H167.969Z" fill="#FFCEB6"/>
<path d="M167.969 105.469V117.188H82.0312V105.469C82.0355 96.146 85.7408 87.2064 92.333 80.6142C98.9251 74.0221 107.865 70.3168 117.188 70.3125H132.812C142.135 70.316 151.076 74.0211 157.668 80.6134C164.26 87.2057 167.965 96.1458 167.969 105.469Z" fill="#FFD086"/>
<path d="M82.0312 117.188L105.469 144.531L117.188 117.188H82.0312Z" fill="#B36F42"/>
<path d="M113.281 93.75C113.281 94.786 112.87 95.7796 112.137 96.5121C111.405 97.2447 110.411 97.6562 109.375 97.6562H101.562C100.526 97.6566 99.5323 97.2457 98.7988 96.5137L88.0664 85.7764C89.5322 83.6051 91.2391 81.6067 93.1543 79.8193L103.179 89.8438H109.375C110.411 89.8438 111.405 90.2553 112.137 90.9879C112.87 91.7204 113.281 92.714 113.281 93.75ZM130.522 70.3125L118.807 82.0317C118.444 82.3946 118.014 82.6824 117.54 82.8789C117.066 83.0753 116.558 83.1764 116.045 83.1764C115.532 83.1765 115.024 83.0754 114.55 82.8791C114.076 82.6828 113.645 82.395 113.282 82.0322L113.28 82.0303C112.918 81.6675 112.63 81.2368 112.433 80.7627C112.237 80.2887 112.136 79.7807 112.136 79.2676C112.136 78.7546 112.238 78.2466 112.434 77.7726C112.63 77.2987 112.918 76.868 113.281 76.5054L119.478 70.3125H130.522ZM144.531 101.562C144.531 102.599 144.12 103.592 143.387 104.325C142.655 105.057 141.661 105.469 140.625 105.469H131.318L125.459 117.188H116.729L125 100.64V89.8438C125 88.8077 125.412 87.8142 126.144 87.0816C126.877 86.349 127.87 85.9375 128.906 85.9375C129.942 85.9375 130.936 86.349 131.668 87.0816C132.401 87.8142 132.812 88.8077 132.812 89.8438V97.6562H140.625C141.661 97.6562 142.655 98.0678 143.387 98.8004C144.12 99.5329 144.531 100.526 144.531 101.562ZM156.499 79.4971L146.151 89.8452C145.788 90.208 145.358 90.4957 144.884 90.692C144.41 90.8884 143.902 90.9894 143.389 90.9894C142.876 90.9894 142.368 90.8884 141.894 90.692C141.42 90.4957 140.989 90.208 140.626 89.8452L140.624 89.8423C140.261 89.4796 139.973 89.0489 139.777 88.575C139.58 88.101 139.479 87.5931 139.479 87.0801C139.479 86.5671 139.58 86.0591 139.777 85.5852C139.973 85.1112 140.261 84.6806 140.624 84.3179L150.093 74.8486C152.397 76.1505 154.547 77.7099 156.499 79.4971ZM110.161 117.188H100.771L96.5713 110.887C95.9966 110.025 95.7878 108.97 95.9909 107.954C96.194 106.938 96.7924 106.044 97.6543 105.47L97.6572 105.468C98.0841 105.184 98.5629 104.986 99.0662 104.886C99.5694 104.787 100.087 104.787 100.591 104.888C101.094 104.989 101.572 105.188 101.998 105.473C102.424 105.759 102.79 106.125 103.075 106.552L110.161 117.188Z" fill="#F69489"/>
<path d="M144.616 159.303C144.489 159.869 144.238 160.4 143.881 160.857C143.523 161.313 143.069 161.685 142.55 161.945C142.032 162.205 141.462 162.346 140.882 162.358C140.302 162.37 139.726 162.254 139.197 162.016C134.256 159.808 130.237 155.952 127.826 151.107L123.252 141.96C122.789 141.033 122.713 139.96 123.04 138.978C123.368 137.995 124.073 137.182 124.999 136.719C125.926 136.256 126.999 136.179 127.981 136.507C128.964 136.835 129.777 137.539 130.24 138.466L134.814 147.613C136.421 150.843 139.101 153.414 142.395 154.886C143.218 155.253 143.888 155.893 144.293 156.698C144.698 157.502 144.812 158.422 144.616 159.301V159.303Z" fill="#FFBFA1"/>
<path d="M66.4053 132.813C66.4037 139.515 63.9398 145.984 59.4818 150.989C55.0237 155.994 48.8823 159.187 42.2245 159.961C35.5668 160.735 28.8567 159.036 23.3694 155.187C17.8821 151.338 14.0001 145.607 12.461 139.083C10.9219 132.56 11.8331 125.698 15.0213 119.803C18.2095 113.907 23.4526 109.388 29.7542 107.104C36.0558 104.821 42.9768 104.932 49.2018 107.416C55.4269 109.901 60.5222 114.586 63.5196 120.581C65.4224 124.377 66.4107 128.566 66.4053 132.813Z" fill="#51A37E"/>
<path d="M66.4062 132.812C66.4116 137.059 65.4233 141.248 63.5205 145.044L39.0625 132.812V105.469C42.6536 105.468 46.2096 106.175 49.5275 107.548C52.8454 108.922 55.86 110.936 58.3993 113.476C60.9386 116.015 62.9527 119.03 64.3265 122.348C65.7004 125.665 66.4071 129.221 66.4062 132.812Z" fill="#90D4B1"/>
<path d="M66.4062 132.813C66.4116 137.059 65.4233 141.248 63.5205 145.044L39.0625 132.813L63.5205 120.581C65.4233 124.377 66.4116 128.566 66.4062 132.813Z" fill="#B6E3CC"/>
<path d="M199.219 70.3125H207.031V78.125H199.219V70.3125ZM214.844 70.3125H238.281V78.125H214.844V70.3125ZM199.219 101.562H214.844V109.375H199.219V101.562ZM222.656 101.562H230.469V109.375H222.656V101.562ZM226.562 85.9375H238.281V93.75H226.562V85.9375ZM199.219 85.9375H218.75V93.75H199.219V85.9375ZM54.6875 7.8125H70.3125V15.625H54.6875V7.8125ZM7.8125 7.8125H46.875V15.625H7.8125V7.8125ZM46.875 39.0625H70.3125V46.875H46.875V39.0625ZM31.25 39.0625H39.0625V46.875H31.25V39.0625ZM7.8125 23.4375H19.5312V31.25H7.8125V23.4375ZM27.3438 23.4375H70.3125V31.25H27.3438V23.4375Z" fill="#68607C"/>
</svg>
