<svg width="212" height="194" viewBox="0 0 212 194" fill="none" xmlns="http://www.w3.org/2000/svg">
<path d="M21.4207 57.0376C48.5801 48.4234 77.4925 44.9832 105.283 52.4638C125.539 57.9202 143.504 69.4994 157.941 84.5209C168.307 95.3042 176.759 107.92 183.43 121.276C184.993 124.401 186.509 127.607 187.867 130.867C188.9 121.196 189.905 111.501 191.485 101.935C192.059 98.461 197.518 99.0873 196.937 102.587C194.736 115.912 193.653 129.501 192.054 142.91C191.799 145.068 189.405 145.868 187.702 144.797C175.818 137.348 163.934 129.897 152.047 122.441C149.044 120.558 152.327 116.153 155.303 118.017C164.904 124.036 174.498 130.054 184.1 136.076C176.85 115.721 161.002 97.4572 145.283 83.1811C131.557 70.7177 114.895 61.753 96.7625 57.6108C71.709 51.8904 47.8552 54.3699 23.6008 62.0666C20.2549 63.1236 18.0443 58.1106 21.4207 57.0376Z" fill="#710FD8"/>
<circle cx="14" cy="63" r="3" fill="#710FD8"/>
<circle cx="3" cy="69" r="3" fill="#710FD8"/>
</svg>
