<svg width="162" height="103" viewBox="0 0 162 103" fill="none" xmlns="http://www.w3.org/2000/svg">
<circle cx="62.1577" cy="3.40375" r="3" transform="rotate(8.34761 62.1577 3.40375)" fill="#710FD8"/>
<circle cx="50.4038" cy="7.74262" r="3" transform="rotate(8.34761 50.4038 7.74262)" fill="#710FD8"/>
<path d="M159.388 52.0298C143.552 53.613 127.719 55.1937 111.886 56.7745C108.581 57.1081 108.551 62.286 111.886 61.9499C125.026 60.6405 138.164 59.3261 151.305 58.0117C123.634 80.8319 90.2262 97.6676 53.5 94.9915C40.3846 94.038 26.0873 89.9903 16.4503 80.6701C4.11683 68.7434 7.47044 50.9693 15.7707 37.7631C22.2709 27.4172 29.1732 21.373 40.0261 15.7844C43.0037 14.2484 40.3736 9.78744 37.401 11.3134C11.9759 24.415 -15.9536 62.9631 11.0064 87.949C20.7604 96.9855 34.5684 100.896 47.4938 102.435C64.6044 104.471 82.2225 100.779 98.2631 94.9915C118.591 87.6503 137.284 76.1195 153.98 62.4876C149.987 74.2624 145.995 86.0372 142.002 97.807C140.925 100.978 145.947 102.325 147.012 99.1811C151.972 84.5535 156.933 69.9284 161.893 55.3033C162.4 53.8122 161.03 51.8605 159.388 52.0298Z" fill="#710FD8"/>
</svg>
