<svg width="234" height="194" viewBox="0 0 234 194" fill="none" xmlns="http://www.w3.org/2000/svg">
<path d="M41.0082 170.821C35.0894 157.833 29.1766 144.848 23.2592 131.865C21.9485 128.979 26.4043 126.863 27.723 129.762C32.3226 139.858 36.9238 149.956 41.5222 160.055C40.8325 128.758 46.8704 95.1638 65.4579 69.5216C83.974 43.9782 117.334 33.8586 147.816 38.608C157.704 40.1454 167.256 43.3141 176.044 48.1077C185.634 53.3366 193.835 60.76 201.859 68.079C204.204 70.2176 200.437 73.4079 198.119 71.2936C191.187 64.9686 185.546 61.1333 177.551 56.1834C169.683 51.3095 160.827 48.1835 151.782 46.3682C135.431 43.0877 118.424 44.7943 102.83 50.5566C88.2705 55.9398 76.9344 65.4586 68.3733 78.3444C59.1509 92.2183 53.8265 108.575 50.7891 124.844C48.3324 137.994 46.0897 149.113 46.5081 162.478C53.1196 155.138 59.7359 147.802 66.3462 140.46C68.4717 138.104 71.6604 141.872 69.5606 144.199C61.322 153.345 53.0841 162.491 44.8425 171.636C43.7557 172.839 41.6072 172.137 41.0082 170.821Z" fill="#710FD8"/>
<circle cx="220.79" cy="86.6288" r="3" transform="rotate(60.0294 220.79 86.6288)" fill="#710FD8"/>
<circle cx="229.097" cy="99.0975" r="3" transform="rotate(60.0294 229.097 99.0975)" fill="#710FD8"/>
<circle cx="210.097" cy="80.0975" r="3" transform="rotate(60.0294 210.097 80.0975)" fill="#710FD8"/>
</svg>
