<svg width="219" height="106" viewBox="0 0 219 106" fill="none" xmlns="http://www.w3.org/2000/svg">
<path d="M121.593 57.8694C113.141 59.8257 104.764 63.1736 97.593 68.0861C93.5219 70.873 89.2406 75.1033 88.5871 80.2542C87.4254 89.4753 97.2149 96.0352 104.713 98.7392C114.5 102.267 124.475 103.096 132.294 95.6777C140.228 88.158 140.877 75.6144 137.412 65.4476C136.455 62.638 135.198 59.987 133.706 57.4676C129.067 57.6973 126.175 56.8109 121.593 57.8694ZM32.4768 4.02387C62.2533 7.78136 93.8249 14.4733 118.922 31.8568C126.293 36.9657 133.103 43.2824 138.118 50.7024C143.456 50.6018 148.829 50.9848 154.181 51.8429C174.501 55.1048 193.855 65.3196 209.706 78.5061C206.341 70.3081 202.979 62.1094 199.614 53.9115C198.342 50.8049 203.379 49.4663 204.633 52.5288C209.375 64.0815 214.117 75.6419 218.859 87.1963C219.485 88.7228 217.908 90.5941 216.348 90.4885C202.47 89.5662 188.592 88.6378 174.712 87.7144C171.384 87.4915 171.359 82.2908 174.712 82.5135C186.224 83.2817 197.738 84.0497 209.25 84.81C197.568 74.1574 182.916 65.8619 168.227 60.7795C159.479 57.752 150.361 56.0557 141.207 55.8708C143.681 60.5967 145.416 65.7046 146.135 71.1809C147.805 83.9267 142.259 97.1982 130.359 102.973C120.762 107.63 109.393 106.509 99.8538 102.357C91.6567 98.792 83.8502 91.6193 83.3169 82.2058C82.6083 69.6827 96.4838 61.7449 106.216 57.5419C114.535 53.942 121.506 53.3126 130.359 52.5288C124.34 44.6994 116.068 38.4247 107.755 33.5094C84.6363 19.8499 58.8232 12.5473 32.4768 9.22483C29.1945 8.8123 29.1544 3.60584 32.4768 4.02387Z" fill="#710FD8"/>
<circle cx="16.4734" cy="3.97496" r="3" transform="rotate(24.5384 16.4734 3.97496)" fill="#710FD8"/>
<circle cx="3.97533" cy="4.86461" r="3" transform="rotate(24.5384 3.97533 4.86461)" fill="#710FD8"/>
</svg>
