<svg width="31" height="31" viewBox="0 0 31 31" fill="none" xmlns="http://www.w3.org/2000/svg">
<path d="M13.3365 5.57612C13.8867 3.30796 17.1133 3.30796 17.6635 5.57612C17.7461 5.91687 17.908 6.2333 18.1359 6.49967C18.3639 6.76603 18.6515 6.97481 18.9754 7.10901C19.2993 7.2432 19.6503 7.29902 19.9999 7.27191C20.3494 7.24481 20.6877 7.13556 20.987 6.95304C22.98 5.73887 25.2624 8.01996 24.0482 10.0143C23.866 10.3135 23.7569 10.6515 23.7299 11.0008C23.7028 11.3501 23.7586 11.7009 23.8926 12.0246C24.0267 12.3483 24.2352 12.6358 24.5013 12.8638C24.7673 13.0917 25.0834 13.2537 25.4239 13.3365C27.692 13.8867 27.692 17.1133 25.4239 17.6635C25.0831 17.7461 24.7667 17.908 24.5003 18.1359C24.234 18.3639 24.0252 18.6515 23.891 18.9754C23.7568 19.2993 23.701 19.6503 23.7281 19.9999C23.7552 20.3494 23.8644 20.6877 24.047 20.987C25.2611 22.98 22.98 25.2624 20.9857 24.0482C20.6865 23.866 20.3485 23.7569 19.9992 23.7299C19.6499 23.7028 19.2991 23.7586 18.9754 23.8926C18.6517 24.0267 18.3642 24.2352 18.1362 24.5013C17.9083 24.7673 17.7463 25.0834 17.6635 25.4239C17.1133 27.692 13.8867 27.692 13.3365 25.4239C13.2539 25.0831 13.092 24.7667 12.8641 24.5003C12.6361 24.234 12.3485 24.0252 12.0246 23.891C11.7007 23.7568 11.3497 23.701 11.0001 23.7281C10.6506 23.7552 10.3123 23.8644 10.013 24.047C8.01996 25.2611 5.73758 22.98 6.95175 20.9857C7.13401 20.6865 7.24309 20.3485 7.27012 19.9992C7.29716 19.6499 7.2414 19.2991 7.10736 18.9754C6.97332 18.6517 6.76479 18.3642 6.49873 18.1362C6.23266 17.9083 5.91656 17.7463 5.57612 17.6635C3.30796 17.1133 3.30796 13.8867 5.57612 13.3365C5.91687 13.2539 6.2333 13.092 6.49967 12.8641C6.76603 12.6361 6.97481 12.3485 7.10901 12.0246C7.2432 11.7007 7.29902 11.3497 7.27191 11.0001C7.24481 10.6506 7.13556 10.3123 6.95304 10.013C5.73887 8.01996 8.01996 5.73758 10.0143 6.95175C11.306 7.73708 12.98 7.04217 13.3365 5.57612Z" stroke="#710FD8" stroke-width="2" stroke-linecap="round" stroke-linejoin="round"/>
<path d="M12.9167 11.625V19.375L19.375 15.5L12.9167 11.625Z" stroke="#710FD8" stroke-width="2" stroke-linecap="round" stroke-linejoin="round"/>
</svg>
