<svg width="85" height="72" viewBox="0 0 85 72" fill="none" xmlns="http://www.w3.org/2000/svg">
<g clip-path="url(#clip0_13_429)">
<path d="M19.8458 37.5751H16.2743C13.9959 37.5751 12.1422 36.0149 12.1422 34.0972C12.1422 33.5146 11.5849 33.0425 10.8971 33.0425C10.2093 33.0425 9.65198 33.5146 9.65198 34.0972C9.65198 37.178 12.6228 39.6845 16.2745 39.6845H19.8458C20.5336 39.6845 21.091 39.2124 21.091 38.6298C21.091 38.0472 20.5336 37.5751 19.8458 37.5751Z" fill="white"/>
<path d="M31.5458 45.3809H20.9088C17.3956 45.3809 14.5373 47.7922 14.5373 50.7564C14.5373 51.339 15.0946 51.8111 15.7824 51.8111C16.4702 51.8111 17.0276 51.3389 17.0276 50.7564C17.0276 48.9554 18.7686 47.4902 20.9088 47.4902H31.5458C32.2336 47.4902 32.7909 47.0182 32.7909 46.4355C32.7909 45.8529 32.2336 45.3809 31.5458 45.3809Z" fill="white"/>
<path d="M41.691 45.3809H36.5264C35.8386 45.3809 35.2813 45.8529 35.2813 46.4355C35.2813 47.0182 35.8386 47.4902 36.5264 47.4902H41.691C42.3788 47.4902 42.9361 47.0182 42.9361 46.4355C42.9361 45.8529 42.3786 45.3809 41.691 45.3809Z" fill="white"/>
<path d="M32.9362 24.8872C32.2484 24.8872 31.6911 25.3594 31.6911 25.9419C31.6911 28.9577 28.7775 31.4112 25.1962 31.4112C24.5084 31.4112 23.9511 31.8833 23.9511 32.4659C23.9511 33.0485 24.5084 33.5206 25.1962 33.5206C30.1506 33.5206 34.1813 30.1208 34.1813 25.9419C34.1813 25.3594 33.624 24.8872 32.9362 24.8872Z" fill="white"/>
<path d="M30.641 8.94315C27.6667 8.78143 25.0878 10.6915 24.8949 13.2025C24.8502 13.7839 25.3704 14.2856 26.0565 14.3236C26.0841 14.3252 26.1114 14.3259 26.1387 14.3259C26.7895 14.3259 27.337 13.8975 27.38 13.3397C27.4836 11.9885 28.8748 10.9624 30.481 11.0482C31.1678 11.0871 31.7593 10.6449 31.8035 10.0635C31.8478 9.48217 31.3273 8.9807 30.641 8.94315Z" fill="white"/>
<path d="M26.4536 50.0771C25.7658 50.0771 25.2085 50.5492 25.2085 51.1318C25.2085 51.7144 25.7658 52.1865 26.4536 52.1865C28.5097 52.1865 30.1825 53.594 30.1825 55.324C30.1825 57.0544 28.5097 58.4619 26.4536 58.4619C25.7658 58.4619 25.2085 58.934 25.2085 59.5166C25.2085 60.0992 25.7658 60.5713 26.4536 60.5713C29.8828 60.5713 32.6727 58.2175 32.6727 55.324C32.6727 52.4309 29.8828 50.0771 26.4536 50.0771Z" fill="white"/>
<path d="M39.1963 25.2412C38.5085 25.2412 37.9512 25.7133 37.9512 26.2959C37.9512 26.8785 38.5085 27.3506 39.1963 27.3506C40.848 27.3506 42.1919 28.4808 42.1919 29.8702C42.1919 31.2597 40.848 32.39 39.1963 32.39C38.5085 32.39 37.9512 32.8621 37.9512 33.4447C37.9512 34.0273 38.5085 34.4994 39.1963 34.4994C42.2213 34.4994 44.6821 32.4226 44.6821 29.8702C44.6821 27.3178 42.2213 25.2412 39.1963 25.2412Z" fill="white"/>
<path d="M17.2625 18.5352C16.5747 18.5352 16.0174 19.0072 16.0174 19.5898C16.0174 20.1725 16.5747 20.6445 17.2625 20.6445C20.1004 20.6445 22.409 22.588 22.409 24.9769C22.409 27.366 20.1004 29.3096 17.2625 29.3096C16.5747 29.3096 16.0174 29.7816 16.0174 30.3642C16.0174 30.9469 16.5747 31.4189 17.2625 31.4189C21.4733 31.4189 24.8992 28.5291 24.8992 24.9769C24.8992 21.4249 21.4733 18.5352 17.2625 18.5352Z" fill="white"/>
<path d="M75.7964 18.4873C73.4561 18.4873 71.5521 20.0945 71.5521 22.07C71.5521 24.0456 73.4561 25.6529 75.7964 25.6529C78.1367 25.6529 80.0408 24.0456 80.0408 22.07C80.0408 20.0945 78.1367 18.4873 75.7964 18.4873ZM75.7966 23.5436C74.8294 23.5436 74.0425 22.8827 74.0425 22.0702C74.0423 21.2578 74.8292 20.5968 75.7966 20.5968C76.7638 20.5968 77.5507 21.2578 77.5507 22.0702C77.5507 22.8825 76.7638 23.5436 75.7966 23.5436Z" fill="white"/>
<path d="M79.9568 45.4805C77.6163 45.4805 75.7124 47.0877 75.7124 49.0633C75.7124 51.039 77.6164 52.646 79.9568 52.646C82.2971 52.646 84.2009 51.0388 84.2009 49.0633C84.2009 47.0878 82.2971 45.4805 79.9568 45.4805ZM79.9568 50.5366C78.9896 50.5366 78.2026 49.8757 78.2026 49.0633C78.2026 48.2509 78.9896 47.5898 79.9568 47.5898C80.924 47.5898 81.7107 48.2508 81.7107 49.0633C81.7109 49.8757 80.924 50.5366 79.9568 50.5366Z" fill="white"/>
<path d="M77.3443 32.8405C76.6262 32.8407 75.9495 32.9925 75.3558 33.2596L72.9287 31.2138C72.4409 30.8029 71.6528 30.8047 71.1679 31.2174C70.6828 31.6303 70.6848 32.298 71.1722 32.7089L73.5932 34.7495C73.279 35.2496 73.1 35.819 73.1 36.4232C73.1 38.3989 75.004 40.0061 77.3443 40.0061C79.6848 40.0061 81.5887 38.3989 81.5887 36.4232C81.5887 34.4477 79.6847 32.8405 77.3443 32.8405ZM77.3445 37.8968C76.3773 37.8968 75.5904 37.2359 75.5904 36.4234C75.5904 35.6111 76.3773 34.95 77.3445 34.95C78.3117 34.95 79.0986 35.611 79.0986 36.4234C79.0986 37.2358 78.3117 37.8968 77.3445 37.8968Z" fill="white"/>
<path d="M74.5387 56.4897C72.1982 56.4897 70.2944 58.0969 70.2944 60.0726C70.2944 62.0482 72.1984 63.6554 74.5387 63.6554C76.8792 63.6554 78.7831 62.0482 78.7831 60.0726C78.7831 58.0969 76.8792 56.4897 74.5387 56.4897ZM74.5387 61.5459C73.5715 61.5459 72.7846 60.885 72.7846 60.0725C72.7846 59.2601 73.5715 58.599 74.5387 58.599C75.5059 58.599 76.2928 59.2599 76.2928 60.0725C76.293 60.885 75.5061 61.5459 74.5387 61.5459Z" fill="white"/>
<path d="M59.97 19.8204C60.7614 19.8204 61.7057 19.4902 62.2667 19.0174L67.0768 14.9629C67.5602 15.1248 68.0862 15.2148 68.6368 15.2148C70.9773 15.2148 72.8812 13.6076 72.8812 11.6319C72.8812 9.65644 70.9772 8.04938 68.6368 8.04938C66.2965 8.04938 64.3927 9.65658 64.3927 11.6319C64.3927 12.3737 64.6611 13.0638 65.1206 13.6361L60.5105 17.5219C60.4131 17.601 60.1046 17.709 59.97 17.711H49.6926V10.7294H52.5835C53.1182 12.1918 54.7342 13.2576 56.6399 13.2576C58.9804 13.2576 60.8843 11.6504 60.8843 9.67472C60.8843 7.69922 58.9802 6.09202 56.6399 6.09202C54.7342 6.09202 53.1182 7.15767 52.5835 8.62003H49.6926V8.46028C49.6926 3.79519 45.1928 0 39.6615 0C35.7073 0 32.1602 1.95216 30.5416 4.93706C30.2927 4.92216 30.0445 4.91456 29.7983 4.91456C24.0495 4.91456 19.3571 8.80228 19.2238 13.6243C18.7274 13.5644 18.2254 13.5342 17.7212 13.5342C11.8887 13.5342 7.14383 17.5361 7.14383 22.455C7.14383 23.5347 7.36745 24.5794 7.80972 25.5732C3.45612 27.7613 0.799042 31.6702 0.799042 36C0.799042 38.3248 1.58081 40.5847 3.05968 42.535C4.2779 44.1415 5.91913 45.4787 7.84956 46.4465C7.38571 47.4647 7.14383 48.5551 7.14383 49.65C7.14383 51.8216 8.07982 53.9142 9.77932 55.5425C10.2347 55.9789 11.0216 56.0199 11.5369 55.6341C12.0522 55.2482 12.1006 54.5818 11.645 54.1453C10.3481 52.9028 9.63406 51.3063 9.63406 49.6499C9.63406 48.5356 9.94501 47.4728 10.5573 46.4906C11.2881 45.3149 12.4235 44.322 13.8597 43.6634C14.4645 43.3859 14.6891 42.7459 14.3615 42.2338C14.0341 41.7213 13.2783 41.5308 12.6738 41.8087C11.1865 42.4911 9.9465 43.4481 9.01931 44.5809C5.45893 42.7667 3.28928 39.5589 3.28928 36C3.28928 32.1947 5.77752 28.7834 9.79476 27.0568C9.79476 27.0568 12.1193 25.9613 15.2052 25.9613C15.893 25.9613 16.4503 25.4893 16.4503 24.9067C16.4503 24.324 15.893 23.852 15.2052 23.852C13.3963 23.852 11.6648 24.1353 10.0684 24.651C9.78215 23.9479 9.63439 23.2131 9.63439 22.4551C9.63439 18.6992 13.2622 15.6437 17.7215 15.6437C18.5597 15.6437 19.389 15.7524 20.1862 15.9668C20.5947 16.0767 21.0412 16.0009 21.368 15.766C21.6951 15.5312 21.8565 15.1706 21.7952 14.8112C21.7396 14.4838 21.7114 14.1556 21.7114 13.8355C21.7114 10.0797 25.3393 7.02408 29.7987 7.02408C30.2366 7.02408 30.6842 7.05586 31.1296 7.11788C34.9576 7.65422 37.8858 10.4615 37.8858 13.8355C37.8858 14.4181 38.4431 14.8902 39.1309 14.8902C39.8187 14.8902 40.376 14.4181 40.376 13.8355C40.376 9.88369 37.3122 6.52598 33.0831 5.35795C34.3978 3.37767 36.8963 2.10938 39.6615 2.10938C43.8195 2.10938 47.2024 4.95844 47.2024 8.46028V8.57742H44.8076C44.1198 8.57742 43.5625 9.0495 43.5625 9.63211C43.5625 10.2147 44.1198 10.6868 44.8076 10.6868H47.2024V17.7109H37.1319C34.8533 17.7109 32.9996 16.1508 32.9996 14.2332C32.9996 13.6506 32.4423 13.1785 31.7545 13.1785C31.0667 13.1785 30.5094 13.6506 30.5094 14.2332C30.5094 17.3139 33.4802 19.8202 37.1319 19.8202H47.2024V37.575H27.0053C26.3175 37.575 25.7602 38.0471 25.7602 38.6297C25.7602 39.2123 26.3175 39.6844 27.0053 39.6844H47.2024V54.1654H43.3548C39.8416 54.1654 36.9835 56.5767 36.9835 59.5408C36.9835 60.1234 37.5408 60.5955 38.2286 60.5955C38.9164 60.5955 39.4737 60.1234 39.4737 59.5408C39.4737 57.7399 41.2147 56.2747 43.3548 56.2747H47.2024V63.5397C47.2024 63.7054 47.1924 63.8691 47.1777 64.0315H44.8076C44.1198 64.0315 43.5625 64.5036 43.5625 65.0862C43.5625 65.6688 44.1198 66.1409 44.8076 66.1409H46.5382C45.356 68.349 42.7193 69.8906 39.6615 69.8906C36.9149 69.8906 34.4255 68.6354 33.1042 66.6741C34.6081 66.258 35.9922 65.5585 37.1583 64.6057C37.6532 64.2012 37.6673 63.5335 37.1898 63.1145C36.7124 62.695 35.9241 62.6832 35.4294 63.0876C34.2404 64.0593 32.7541 64.6867 31.149 64.9133C30.6965 64.9775 30.2421 65.0101 29.7983 65.0101C25.339 65.0101 21.711 61.9545 21.711 58.1985C21.711 58.1025 21.7178 58.0028 21.7233 57.904C22.7284 57.5575 23.6725 57.0833 24.5145 56.4879C25.0425 56.1147 25.113 55.4496 24.6723 55.0024C24.2315 54.5552 23.4592 54.5089 22.9185 54.8688C20.4199 56.5312 18.0034 56.5054 17.0367 56.4375C16.3494 56.3881 15.7497 56.8208 15.6926 57.4012C15.6357 57.9817 16.1452 58.4913 16.8305 58.5397C17.6266 58.5953 18.4375 58.5758 19.2261 58.4806C19.4031 63.2697 24.0778 67.1195 29.7985 67.1195C30.0505 67.1195 30.3047 67.1115 30.5597 67.0957C32.187 70.0609 35.7269 72 39.6615 72C45.1926 72 49.6926 68.2048 49.6926 63.5397V61.209H56.2931C56.4282 61.211 56.7367 61.3188 56.8338 61.3979L59.8023 63.9C59.4007 64.4472 59.1681 65.0917 59.1681 65.7813C59.1681 67.7569 61.0722 69.3641 63.4125 69.3641C65.753 69.3641 67.6569 67.7569 67.6569 65.7813C67.6569 63.8056 65.7528 62.1984 63.4125 62.1984C62.7971 62.1984 62.2125 62.3105 61.6839 62.5102L58.5902 59.9026C58.0293 59.4298 57.085 59.0996 56.2936 59.0996H49.6926V53.4617H60.5169C61.0516 54.924 62.6676 55.9898 64.5734 55.9898C66.9139 55.9898 68.8178 54.3826 68.8178 52.407C68.8178 50.4314 66.9138 48.8242 64.5734 48.8242C62.6678 48.8242 61.0516 49.8898 60.5169 51.3523H49.6926V44.2873H62.6455C63.1802 45.7497 64.7962 46.8155 66.7021 46.8155C69.0426 46.8155 70.9465 45.2083 70.9465 43.2326C70.9465 41.257 69.0424 39.6498 66.7021 39.6498C64.7962 39.6498 63.1802 40.7154 62.6455 42.1779H49.6926V34.5014H52.7769C53.3118 35.9636 54.9278 37.0294 56.8335 37.0294C59.174 37.0294 61.0778 35.4222 61.0778 33.4467C61.0778 31.471 59.1738 29.8638 56.8335 29.8638C54.9278 29.8638 53.3116 30.9295 52.7769 32.392H49.6926V26.3056H63.2591C63.3941 26.3077 63.7027 26.4154 63.7998 26.4945L66.3575 28.6505C66.6003 28.8553 66.9179 28.9576 67.2357 28.9576C67.5553 28.9576 67.875 28.854 68.1182 28.6469C68.6033 28.234 68.6013 27.5662 68.1139 27.1553L65.5563 24.9992C64.9953 24.5264 64.051 24.1962 63.2596 24.1962H49.6926V19.8204H59.97ZM68.6368 10.1586C69.6041 10.1586 70.391 10.8195 70.391 11.6318C70.391 12.4442 69.6041 13.1053 68.6368 13.1053C67.6696 13.1053 66.8829 12.4443 66.8829 11.6318C66.8829 10.8195 67.6696 10.1586 68.6368 10.1586ZM56.6399 8.20139C57.6071 8.20139 58.394 8.86233 58.394 9.67472C58.394 10.4871 57.6071 11.1482 56.6399 11.1482C55.6727 11.1482 54.8859 10.4872 54.8859 9.67472C54.8858 8.86233 55.6727 8.20139 56.6399 8.20139ZM63.4125 64.3077C64.3797 64.3077 65.1666 64.9688 65.1666 65.7811C65.1666 66.5935 64.3797 67.2546 63.4125 67.2546C62.4453 67.2546 61.6584 66.5937 61.6584 65.7811C61.6584 64.9688 62.4453 64.3077 63.4125 64.3077ZM64.5734 50.9335C65.5407 50.9335 66.3276 51.5945 66.3276 52.407C66.3276 53.2194 65.5407 53.8805 64.5734 53.8805C63.6062 53.8805 62.8193 53.2195 62.8193 52.407C62.8193 51.5946 63.6062 50.9335 64.5734 50.9335ZM66.7019 41.7592C67.6691 41.7592 68.4561 42.4201 68.4561 43.2326C68.4561 44.045 67.6691 44.7061 66.7019 44.7061C65.7347 44.7061 64.9478 44.0452 64.9478 43.2326C64.9478 42.4201 65.7347 41.7592 66.7019 41.7592ZM56.8335 31.9732C57.8007 31.9732 58.5876 32.6341 58.5876 33.4467C58.5876 34.2589 57.8007 34.92 56.8335 34.92C55.8663 34.92 55.0793 34.2591 55.0793 33.4467C55.0793 32.6341 55.8663 31.9732 56.8335 31.9732Z" fill="white"/>
</g>
<defs>
<clipPath id="clip0_13_429">
<rect width="85" height="72" fill="white"/>
</clipPath>
</defs>
</svg>
