<svg width="86" height="72" viewBox="0 0 86 72" fill="none" xmlns="http://www.w3.org/2000/svg">
<g clip-path="url(#clip0_13_475)">
<path d="M1.94351 36.2038L8.71776 38.4675C9.61292 38.7665 10.5889 38.6086 11.287 38.113L16.6516 40.9788L17.5717 41.5267C16.4046 43.0913 16.7036 45.2293 18.4781 46.5038C19.4531 47.2041 20.6921 47.503 21.9049 47.391C21.9761 48.4709 22.5558 49.4326 23.4993 50.11C24.4265 50.776 25.6369 51.117 26.9258 50.9979C26.9975 52.0773 27.5769 53.0388 28.5204 53.7163C29.4562 54.3885 30.669 54.7224 31.9491 54.6041C32.016 55.6209 32.5544 56.6136 33.5415 57.3226C35.4484 58.6925 38.317 58.4938 39.9338 56.8787L41.0102 55.8084L42.8243 56.9424C45.9606 58.9034 50.3936 57.2969 50.8025 54.0374C54.0361 55.0327 57.4697 53.113 57.5195 50.165C60.5675 50.6504 63.2722 48.7752 63.4421 46.2878C67.3957 47.1823 70.9718 43.7981 69.226 40.4889L74.0737 37.8515C74.7678 38.548 75.9213 38.8111 76.9497 38.4674L83.724 36.2038C85.0279 35.7681 85.6705 34.515 85.156 33.4102L82.0598 26.7624C81.8075 26.2204 81.0842 25.9546 80.4447 26.1684C79.8048 26.3821 79.4909 26.9947 79.7433 27.5365L82.8393 34.1842C82.8499 34.2069 82.8368 34.2326 82.8101 34.2416L76.0358 36.5053C76.0089 36.5141 75.9789 36.5031 75.9682 36.4805C75.731 35.9712 68.1273 19.6446 67.455 18.201C67.4525 18.1959 67.447 18.1841 67.4556 18.1674C67.4643 18.1506 67.4784 18.146 67.4842 18.1439L74.2586 15.8801C74.2644 15.878 74.2782 15.8734 74.2985 15.8807C74.318 15.888 74.3235 15.8998 74.326 15.9049L77.6083 22.9521C77.8608 23.4941 78.584 23.7599 79.2235 23.5461C79.8633 23.3324 80.1772 22.7198 79.9249 22.178L76.6426 15.1309C76.1284 14.0264 74.6489 13.4822 73.345 13.918L66.5704 16.1818C65.36 16.5862 64.721 17.6864 65.0458 18.7295L61.4142 19.8649C60.2841 20.2182 59.0573 20.3208 57.8666 20.1609L54.1957 19.668C53.5167 19.577 52.8785 19.9695 52.7711 20.5445C52.6635 21.1198 53.1267 21.6602 53.8059 21.7513L57.4768 22.2442C59.0876 22.4604 60.7471 22.3218 62.2766 21.8436L65.9411 20.6978C66.3389 21.5519 72.6157 35.0291 73.0276 35.9135L67.6846 38.8204L67.5939 38.7637C67.5936 38.7634 67.5931 38.7631 67.5928 38.763C67.0203 38.4051 57.73 32.5976 57.294 32.3249C57.0271 32.158 56.6954 32.083 56.3139 32.1379C51.1558 32.8808 46.5344 31.3272 43.1346 28.3202C42.0767 27.3846 40.3508 27.3344 39.2048 28.206C35.9066 30.7152 31.2975 33.1619 28.0727 30.5658C27.7522 30.3081 27.7499 29.8319 28.2365 29.5659C32.3444 27.3275 36.5999 24.1847 40.0244 21.2501C40.8768 20.5196 42.1026 20.18 43.3057 20.3416L48.032 20.9762C48.7125 21.0675 49.349 20.6749 49.4566 20.0997C49.5642 19.5244 49.101 18.984 48.4218 18.8929L43.6955 18.2582C41.7027 17.9908 39.6685 18.5549 38.2535 19.7674C37.8574 20.1067 37.3889 20.5008 36.8607 20.9329C35.2663 20.4541 33.6045 20.168 31.9141 20.0876C26.9662 19.8522 26.537 19.8078 25.4134 19.8689C24.5315 19.9166 23.6344 19.7896 22.8184 19.5005L20.624 18.7227C20.9408 17.6857 20.3028 16.5842 19.0972 16.1815L12.323 13.918C11.0186 13.482 9.53937 14.0263 9.02506 15.1309L0.511627 33.4102C-0.00385019 34.5172 0.636139 35.767 1.94351 36.2038ZM22.973 44.6937C22.2434 45.4227 20.9496 45.5131 20.0886 44.8949C19.222 44.2725 19.1238 43.1785 19.8494 42.4535L22.9292 39.3916C23.6415 38.6796 24.9388 38.5623 25.8135 39.1903C26.6761 39.8098 26.7827 40.9027 26.0509 41.6336C26.0506 41.6338 26.0504 41.6341 26.0501 41.6344L22.973 44.6937ZM27.994 48.3002C27.2627 49.0307 25.9729 49.121 25.1098 48.5013C24.2432 47.8788 24.1449 46.7848 24.8706 46.0599L27.9503 42.9979C28.7151 42.2335 30.1327 42.1667 30.9862 42.9173C30.9919 42.9222 30.9967 42.9277 31.0023 42.9328C31.7052 43.566 31.7511 44.5617 31.0721 45.24L27.994 48.3002ZM33.0151 51.9063C32.2811 52.6397 30.99 52.7245 30.1309 52.1074C29.2643 51.4852 29.1659 50.3911 29.8915 49.6662L32.9714 46.6041C33.7031 45.8734 35.0016 45.789 35.8558 46.403C36.7164 47.0213 36.8228 48.1172 36.0932 48.8462C36.0929 48.8465 36.0927 48.8468 36.0924 48.847L33.0151 51.9063ZM41.1311 52.434C41.1259 52.4393 41.1215 52.4452 41.1161 52.4504C40.6194 52.9443 39.2506 54.3051 38.0362 55.5125C37.3066 56.2417 36.0128 56.3318 35.152 55.7138C34.2913 55.0956 34.1848 53.9997 34.9127 53.2725L37.9926 50.2104C38.7264 49.4772 40.0186 49.3927 40.8768 50.0093C41.7211 50.6154 41.8504 51.6971 41.1311 52.434ZM19.7292 20.6926L21.857 21.4467C23.0248 21.8606 24.3098 22.043 25.5726 21.9742C26.5249 21.9223 26.8428 21.9592 31.774 22.1939C32.7865 22.2421 33.7876 22.3749 34.7652 22.5903C32.329 24.4539 29.593 26.3218 26.8526 27.8124C25.0957 28.7678 24.8354 30.8704 26.3572 32.0955C28.4372 33.7697 33.0888 35.6943 40.8686 29.7758C41.0081 29.6698 41.2133 29.6712 41.3356 29.7796C45.1042 33.1116 50.4459 34.9727 56.2144 34.2861C56.868 34.6752 55.6025 33.8896 66.1136 40.4606C67.2385 41.1637 67.5533 42.5466 66.6725 43.5011C65.836 44.4077 64.3244 44.5833 63.2322 43.9003C61.7567 42.9778 62.8461 43.6799 57.6589 40.2944C57.1137 39.9388 56.3323 40.0247 55.9124 40.4861C55.4929 40.9475 55.5942 41.6097 56.1387 41.9653L60.4423 44.7741C61.1837 45.6016 61.0954 46.7973 60.2177 47.539C59.3548 48.2684 57.9343 48.3373 56.9135 47.6994C55.9265 47.0825 56.7465 47.6111 52.2199 44.6591C51.675 44.3036 50.8931 44.3899 50.4738 44.8515C50.0542 45.313 50.1558 45.9752 50.7007 46.3306L54.5167 48.8192C55.2374 49.6088 55.202 50.7445 54.4151 51.5002C53.5685 52.3133 52.0683 52.4265 50.9995 51.7583C49.2821 50.6847 50.1441 51.2391 46.8367 49.0708C46.2928 48.7143 45.5109 48.7987 45.0899 49.2594C44.669 49.72 44.7687 50.3824 45.3125 50.7389L47.958 52.4732C48.5598 53.2845 48.4419 54.347 47.6505 55.0482C46.7867 55.8136 45.3475 55.8984 44.3026 55.2452L42.6289 54.1989L43.0134 53.8166C43.78 53.051 44.1758 52.0595 44.0745 51.0162C43.9716 49.9594 43.3788 49.0411 42.4871 48.4004C41.5596 47.7343 40.3482 47.393 39.0595 47.5114C38.9918 46.4924 38.4401 45.4941 37.466 44.7941C36.5419 44.1305 35.3689 43.8116 34.1598 43.8952C34.1194 43.898 34.0791 43.9013 34.0391 43.9051C34.0368 43.8713 34.0354 43.8376 34.0321 43.8037C33.9529 42.9882 33.5777 42.2329 32.961 41.6236C32.9572 41.6198 32.9537 41.616 32.9499 41.6122C31.9687 40.6507 30.5081 40.165 29.0194 40.3006C28.9494 39.2415 28.3826 38.2704 27.4237 37.5816C25.5154 36.2112 22.6471 36.4112 21.0313 38.0256L19.1548 39.8912L18.058 39.2382C18.041 39.228 18.0238 39.2182 18.0062 39.2089L12.4802 36.2568C16.6579 27.2867 15.0931 30.6467 19.7292 20.6926ZM2.82804 34.1845L11.3413 15.9051C11.3494 15.8877 11.369 15.8772 11.3898 15.8772C11.3961 15.8772 11.4026 15.8781 11.4089 15.8803L18.1831 18.144C18.2099 18.1529 18.223 18.1786 18.2125 18.2011C17.8029 19.0806 9.96703 35.9054 9.69908 36.4806C9.68812 36.5036 9.6589 36.5144 9.63168 36.5054L2.85742 34.2416C2.83053 34.2326 2.81725 34.2072 2.82804 34.1845Z" fill="#303434"/>
</g>
<defs>
<clipPath id="clip0_13_475">
<rect width="85" height="72" fill="white" transform="translate(0.333374)"/>
</clipPath>
</defs>
</svg>
