<svg width="24" height="24" viewBox="0 0 24 24" fill="none" xmlns="http://www.w3.org/2000/svg">
<path d="M10.3 6.74009C10.367 6.81232 10.4191 6.89703 10.4533 6.98939C10.4875 7.08175 10.5033 7.17995 10.4995 7.27838C10.4958 7.37681 10.4728 7.47355 10.4317 7.56307C10.3905 7.65258 10.3322 7.73313 10.26 7.80009L7.35198 10.5001L10.26 13.2001C10.3322 13.2671 10.3905 13.3476 10.4316 13.4371C10.4727 13.5266 10.4958 13.6234 10.4995 13.7218C10.5032 13.8202 10.4875 13.9184 10.4533 14.0108C10.419 14.1032 10.367 14.1879 10.3 14.2601C10.233 14.3323 10.1525 14.3907 10.0629 14.4317C9.97343 14.4728 9.87669 14.4959 9.77826 14.4996C9.67983 14.5033 9.58163 14.4876 9.48927 14.4534C9.39691 14.4192 9.3122 14.3671 9.23998 14.3001L5.73998 11.0501C5.66425 10.9799 5.60383 10.8948 5.56252 10.8002C5.5212 10.7055 5.49988 10.6034 5.49988 10.5001C5.49988 10.3968 5.5212 10.2947 5.56252 10.2C5.60383 10.1054 5.66425 10.0203 5.73998 9.95009L9.23998 6.70009C9.3122 6.63311 9.39691 6.58101 9.48927 6.54677C9.58163 6.51253 9.67983 6.49682 9.77826 6.50053C9.87669 6.50425 9.97343 6.52732 10.0629 6.56842C10.1525 6.60952 10.233 6.66786 10.3 6.74009ZM13.74 7.80009C13.6677 7.73312 13.6094 7.65258 13.5683 7.56306C13.5272 7.47354 13.5042 7.37681 13.5004 7.27838C13.4967 7.17995 13.5124 7.08175 13.5467 6.98939C13.5809 6.89703 13.633 6.81232 13.7 6.74009C13.767 6.66787 13.8475 6.60954 13.937 6.56844C14.0265 6.52734 14.1233 6.50428 14.2217 6.50056C14.3201 6.49685 14.4183 6.51256 14.5107 6.54679C14.603 6.58103 14.6877 6.63312 14.76 6.70009L18.26 9.95009C18.3357 10.0203 18.3961 10.1054 18.4374 10.2C18.4787 10.2947 18.5001 10.3968 18.5001 10.5001C18.5001 10.6034 18.4787 10.7055 18.4374 10.8002C18.3961 10.8948 18.3357 10.9799 18.26 11.0501L14.76 14.3001C14.6877 14.3671 14.603 14.4192 14.5107 14.4534C14.4183 14.4876 14.3201 14.5033 14.2217 14.4996C14.1233 14.4959 14.0265 14.4728 13.937 14.4317C13.8475 14.3907 13.767 14.3323 13.7 14.2601C13.633 14.1879 13.5809 14.1032 13.5467 14.0108C13.5124 13.9184 13.4967 13.8202 13.5004 13.7218C13.5042 13.6234 13.5272 13.5266 13.5683 13.4371C13.6094 13.3476 13.6677 13.2671 13.74 13.2001L16.648 10.5001L13.74 7.80009Z" fill="#710FD8"/>
<path d="M1.5 4.25C1.5 3.284 2.284 2.5 3.25 2.5H20.75C21.716 2.5 22.5 3.284 22.5 4.25V16.75C22.5 17.2141 22.3156 17.6592 21.9874 17.9874C21.6592 18.3156 21.2141 18.5 20.75 18.5H11.06L7.487 22.073C7.28305 22.2762 7.02352 22.4144 6.74112 22.4703C6.45872 22.5262 6.16609 22.4973 5.90011 22.3871C5.63414 22.277 5.40673 22.0905 5.24655 21.8513C5.08636 21.6121 5.00058 21.3309 5 21.043V18.5H3.25C2.78587 18.5 2.34075 18.3156 2.01256 17.9874C1.68437 17.6592 1.5 17.2141 1.5 16.75V4.25ZM3.25 4C3.1837 4 3.12011 4.02634 3.07322 4.07322C3.02634 4.12011 3 4.1837 3 4.25V16.75C3 16.888 3.112 17 3.25 17H5.75C5.94891 17 6.13968 17.079 6.28033 17.2197C6.42098 17.3603 6.5 17.5511 6.5 17.75V20.94L10.22 17.22C10.3605 17.0793 10.5512 17.0002 10.75 17H20.75C20.8163 17 20.8799 16.9737 20.9268 16.9268C20.9737 16.8799 21 16.8163 21 16.75V4.25C21 4.1837 20.9737 4.12011 20.9268 4.07322C20.8799 4.02634 20.8163 4 20.75 4H3.25Z" fill="#710FD8"/>
</svg>
