<svg width="86" height="72" viewBox="0 0 86 72" fill="none" xmlns="http://www.w3.org/2000/svg">
<path d="M81.104 12.5194C80.9118 10.6933 79.1346 9.3162 76.9702 9.3162H66.2327V7.97581H66.4417C67.975 7.97581 69.2224 6.9192 69.2224 5.62057V2.35524C69.2224 1.05662 67.975 0 66.4417 0H34.8385C34.1509 0 33.5934 0.472061 33.5934 1.05465C33.5934 1.63724 34.1509 2.1093 34.8385 2.1093H66.4417C66.6019 2.1093 66.7322 2.21954 66.7322 2.35524V5.62057C66.7322 5.75627 66.6019 5.86652 66.4417 5.86652H19.8917C19.7315 5.86652 19.6011 5.75627 19.6011 5.62057V2.35524C19.6011 2.21954 19.7315 2.1093 19.8917 2.1093H29.0008C29.6884 2.1093 30.2458 1.63724 30.2458 1.05465C30.2458 0.472061 29.6884 0 29.0008 0H19.8917C18.3584 0 17.111 1.05662 17.111 2.35524V5.62057C17.111 6.9192 18.3584 7.97581 19.8917 7.97581H20.1007V9.3162H9.36316C7.19873 9.3162 5.4216 10.6933 5.22936 12.5194C5.20413 12.7582 4.64468 18.4424 7.39263 24.738C9.90685 30.498 15.675 37.8527 28.891 40.7391C31.0186 42.163 33.448 43.2773 36.0837 43.9994L36.7104 44.8756C37.8949 46.5319 38.5209 48.4901 38.5209 50.5382C38.5209 51.7893 38.2855 53.0115 37.8213 54.1707L36.9511 56.343H34.0557C31.0845 56.343 28.6671 58.3907 28.6671 60.9076V63.1169H24.1357C22.8569 63.1169 21.8165 63.9983 21.8165 65.0815V70.0355C21.8165 71.1187 22.8569 72 24.1357 72H62.1978C63.4766 72 64.517 71.1187 64.517 70.0355V65.0815C64.517 63.9983 63.4766 63.1169 62.1978 63.1169H57.6664V60.9076C57.6664 58.3907 55.249 56.343 52.2778 56.343H49.3824L48.5122 54.1707C48.0479 53.0117 47.8125 51.7894 47.8125 50.5382C47.8125 48.4902 48.4385 46.5321 49.623 44.8756L50.2496 43.9994C52.8854 43.2773 55.3146 42.1632 57.4423 40.7391C70.6583 37.8527 76.4265 30.498 78.9407 24.738C81.6887 18.4424 81.1292 12.7583 81.104 12.5194ZM20.5617 29.2987C18.2402 27.4577 16.4617 25.1739 15.2454 22.4519C14.4002 20.5606 13.8471 18.5071 13.6009 16.3472H20.1007V25.4048C20.1007 26.7379 20.2599 28.04 20.5617 29.2987ZM9.72839 24.0066C7.17267 18.1515 7.68664 12.9263 7.70971 12.7068C7.78657 11.9764 8.49743 11.4256 9.36316 11.4256H20.1007V14.238H13.4978C12.8251 14.238 12.1797 14.4795 11.7268 14.9005C11.2734 15.3221 11.0493 15.8896 11.1119 16.4577C11.374 18.8374 11.9811 21.1055 12.9164 23.1987C14.7636 27.3327 17.7536 30.5606 21.8464 32.8586C22.6517 34.505 23.7153 36.0386 24.9946 37.423C15.974 34.2558 11.7256 28.5821 9.72839 24.0066ZM62.0268 65.2262V69.8907H24.3065V65.2262H62.0268ZM52.2778 58.4523C53.8759 58.4523 55.1763 59.5537 55.1763 60.9076V63.1169H31.1572V60.9076C31.1572 59.5537 32.4576 58.4523 34.0557 58.4523H52.2778ZM46.1542 54.8485L46.7528 56.343H39.5804L40.1792 54.8483C40.731 53.4704 41.0109 52.0203 41.0109 50.5382C41.0109 48.4636 40.4635 46.4608 39.4227 44.6843C40.6417 44.8536 41.8919 44.9431 43.1667 44.9431C44.4413 44.9431 45.6917 44.8536 46.9105 44.6843C45.8696 46.4608 45.3223 48.4636 45.3223 50.5382C45.3225 52.0205 45.6022 53.4705 46.1542 54.8485ZM43.1667 42.8336C31.8211 42.8336 22.5908 35.015 22.5908 25.4048V7.97581H63.7426V25.4048C63.7426 35.0152 54.5123 42.8336 43.1667 42.8336ZM76.6051 24.0066C74.6079 28.5822 70.3594 34.2565 61.3382 37.4237C62.6198 36.0368 63.6851 34.5002 64.4911 32.8505C68.0053 30.8738 70.7118 28.2116 72.5754 24.878C72.8698 24.3517 72.6045 23.7227 71.9831 23.4735C71.3619 23.2243 70.6195 23.4488 70.325 23.9752C69.1712 26.0391 67.6496 27.8173 65.7707 29.3052C66.0735 28.0445 66.233 26.7403 66.233 25.4049V16.3473H72.7328C72.609 17.4325 72.4031 18.5087 72.1207 19.5476C71.9665 20.1152 72.3847 20.6814 73.0549 20.8119C73.7244 20.9432 74.3932 20.5884 74.5474 20.0207C74.8619 18.8636 75.0886 17.6648 75.2218 16.4577C75.2844 15.8896 75.0602 15.3221 74.6069 14.9005C74.154 14.4795 73.5086 14.238 72.8359 14.238H66.233V11.4256H76.9705C77.8363 11.4256 78.5471 11.9764 78.624 12.707C78.6467 12.9263 79.1607 18.1515 76.6051 24.0066Z" fill="white"/>
<path d="M51.3541 20.4833L47.7839 20.0439C47.6284 20.0246 47.4941 19.9419 47.4245 19.8227L45.8278 17.0823C45.3243 16.218 44.3047 15.6812 43.1669 15.6812C42.029 15.6812 41.0094 16.218 40.5059 17.0823L38.9092 19.8227C38.8397 19.9421 38.7054 20.0248 38.5498 20.0439L34.9796 20.4833C33.8536 20.6218 32.9357 21.2773 32.5841 22.194C32.2325 23.1107 32.5202 24.0979 33.335 24.7708L35.9184 26.9037C36.031 26.9967 36.0823 27.1304 36.0557 27.2618L35.4458 30.2738C35.2534 31.2237 35.7057 32.1656 36.6263 32.7321C37.5466 33.2984 38.7442 33.372 39.7516 32.9235L42.9448 31.5014C43.0839 31.4394 43.2499 31.4394 43.389 31.5014L46.5824 32.9235C47.0205 33.1186 47.4944 33.2149 47.9659 33.2149C48.5786 33.2149 49.1874 33.0522 49.7075 32.732C50.628 32.1654 51.0804 31.2234 50.888 30.2737L50.2781 27.2616C50.2515 27.1303 50.3028 26.9965 50.4153 26.9037L52.9989 24.7705C53.8137 24.0978 54.1014 23.1104 53.7498 22.1938C53.3982 21.2773 52.48 20.6218 51.3541 20.4833ZM51.2607 23.2603L48.6771 25.3935C47.9777 25.971 47.6586 26.8026 47.8236 27.6182L48.4335 30.6303C48.4772 30.8459 48.3333 30.9706 48.2436 31.0259C48.1541 31.0811 47.9695 31.1588 47.7409 31.0567L44.5476 29.6346C44.1153 29.4421 43.641 29.3457 43.1667 29.3457C42.6924 29.3457 42.2181 29.4421 41.7858 29.6346L38.5926 31.0567C38.3642 31.1586 38.1796 31.081 38.0898 31.0259C38.0002 30.9706 37.8564 30.846 37.8999 30.6303L38.5098 27.6182C38.675 26.8026 38.3559 25.971 37.6564 25.3933L35.0729 23.2604C34.888 23.1077 34.9177 22.9352 34.9521 22.8459C34.9863 22.7566 35.0819 22.6022 35.3374 22.5707L38.9076 22.1312C39.8744 22.0121 40.7096 21.4982 41.1419 20.7563L42.7386 18.0159C42.8528 17.8197 43.0558 17.7904 43.1665 17.7904C43.2773 17.7904 43.4803 17.8197 43.5945 18.0159L45.1912 20.7563C45.6235 21.4982 46.4587 22.0123 47.4255 22.1312L50.9959 22.5707C51.2514 22.6022 51.347 22.7566 51.3812 22.8459C51.4157 22.9352 51.4454 23.1077 51.2607 23.2603Z" fill="white"/>
</svg>
