<svg width="193" height="193" viewBox="0 0 193 193" fill="none" xmlns="http://www.w3.org/2000/svg">
<path d="M85.4828 131.379C57.6016 131.379 35 123.57 35 113.939V139.586H35.0947C36.6323 148.739 58.5986 156 85.4828 156C112.367 156 134.333 148.739 135.871 139.586H135.966V113.939C135.966 123.57 113.364 131.379 85.4828 131.379Z" fill="#710FD8"/>
<path d="M35 112.914V113.94C35 113.595 35.0379 113.255 35.0947 112.914H35Z" fill="#710FD8"/>
<path d="M135.871 112.914C135.928 113.255 135.966 113.595 135.966 113.94V112.914H135.871Z" fill="#710FD8"/>
<path d="M85.4828 106.758C57.6016 106.758 35 98.9492 35 89.3184V114.965H35.0947C36.6323 124.118 58.5986 131.379 85.4828 131.379C112.367 131.379 134.333 124.118 135.871 114.965H135.966V89.3184C135.966 98.9492 113.364 106.758 85.4828 106.758Z" fill="#8D35EA"/>
<path d="M35 88.293V89.3188C35 88.9741 35.0379 88.6336 35.0947 88.293H35Z" fill="#8D35EA"/>
<path d="M135.871 88.293C135.928 88.6336 135.966 88.9741 135.966 89.3188V88.293H135.871Z" fill="#8D35EA"/>
<path d="M85.4828 82.1381C113.364 82.1381 135.966 74.3301 135.966 64.6984C135.966 55.0668 113.364 47.2588 85.4828 47.2588C57.6019 47.2588 35 55.0668 35 64.6984C35 74.3301 57.6019 82.1381 85.4828 82.1381Z" fill="#C18CF9"/>
<path d="M85.4828 82.1379C57.6016 82.1379 35 74.329 35 64.6982V90.3448H35.0947C36.6323 99.4975 58.5986 106.759 85.4828 106.759C112.367 106.759 134.333 99.4975 135.871 90.3448H135.966V64.6982C135.966 74.329 113.364 82.1379 85.4828 82.1379Z" fill="#9F53EE"/>
<path d="M35 63.6729V64.6987C35 64.354 35.0379 64.0134 35.0947 63.6729H35Z" fill="#9F53EE"/>
<path d="M135.871 63.6729C135.928 64.0134 135.966 64.354 135.966 64.6987V63.6729H135.871Z" fill="#9F53EE"/>
<path d="M106.517 37C82.8998 37 63.0748 42.6033 57.5637 50.1721C65.561 48.3337 75.1549 47.2586 85.4828 47.2586C112.367 47.2586 134.333 54.5176 135.871 63.6724H135.966V64.6983V68.6007C148.7 65.4348 157 60.2727 157 54.4397C157 44.8089 134.398 37 106.517 37Z" fill="#B1FFBA"/>
<path d="M135.966 68.6005V88.2929V89.3188V90.3446V93.2232C147.947 90.2441 155.997 85.4964 156.905 80.086H157V54.4395C157 60.2725 148.7 65.4346 135.966 68.6005Z" fill="#8AEF95"/>
<path d="M135.966 93.2215V112.914V113.94V114.966V117.844C147.947 114.865 155.997 110.117 156.905 104.707H157V79.0605C157 84.8936 148.7 90.0557 135.966 93.2215Z" fill="#55E764"/>
<path d="M135.966 117.842V139.586H135.871C135.684 140.698 135.189 141.783 134.426 142.83C147.251 139.883 155.957 134.965 156.905 129.327H157V103.681C157 109.514 148.7 114.676 135.966 117.842Z" fill="#25D838"/>
</svg>
