<svg xmlns="http://www.w3.org/2000/svg" version="1.1" xmlns:xlink="http://www.w3.org/1999/xlink" xmlns:svgjs="http://svgjs.com/svgjs" width="512" height="512" x="0" y="0" viewBox="0 0 64 64" style="enable-background:new 0 0 512 512" xml:space="preserve" class=""><g><g xmlns="http://www.w3.org/2000/svg" id="Flow" fill-rule="evenodd"><path d="m37.82 21.55h10.55a1 1 0 0 0 0-2h-10.55a1 1 0 0 0 0 2z" fill="#5f5f70" data-original="#5f5f70" class=""></path><path d="m15.63 32.47h23.5v11a1 1 0 0 0 1 1h8.24a1 1 0 0 0 0-2h-7.24v-11a1 1 0 0 0 -1-1h-17.87v-8.92h3.93a1 1 0 0 0 0-2h-4.93a1 1 0 0 0 -1 1v9.92h-4.63a1 1 0 0 0 0 2z" fill="#5f5f70" data-original="#5f5f70" class=""></path><path d="m15.63 26.36a2 2 0 0 0 -2-2h-7.63a2 2 0 0 0 -2 2v10.23a2 2 0 0 0 2 2h7.63a2 2 0 0 0 2-2z" fill="#f7f7f7" data-original="#f7f7f7" class=""></path><path d="m15.63 26.35a2 2 0 0 0 -2-2h-7.63a2 2 0 0 0 -2 2v3.65h11.63z" fill="#25d838" data-original="#fa5b6e" class=""></path><path d="m37.82 15.52a2 2 0 0 0 -.59-1.41 2 2 0 0 0 -1.41-.59h-7.63a2 2 0 0 0 -2 2v10.23a2 2 0 0 0 2 2h7.63a2 2 0 0 0 1.41-.59 2 2 0 0 0 .59-1.41z" fill="#f7f7f7" data-original="#f7f7f7" class=""></path><path d="m37.82 15.52a2 2 0 0 0 -.59-1.41 2 2 0 0 0 -1.41-.59h-7.63a2 2 0 0 0 -2 2v3.67h11.63z" fill="#25d838" data-original="#fa5b6e" class=""></path><path d="m60 15.44a2 2 0 0 0 -2-2h-7.63a2 2 0 0 0 -2 2v10.22a2 2 0 0 0 2 2h7.63a2 2 0 0 0 2-2z" fill="#f7f7f7" data-original="#f7f7f7" class=""></path><path d="m60 15.44a2 2 0 0 0 -2-2h-7.63a2 2 0 0 0 -2 2v3.67h11.63z" fill="#25d838" data-original="#fa5b6e" class=""></path><path d="m60 38.34a2 2 0 0 0 -2-2h-7.63a2 2 0 0 0 -2 2v10.22a2 2 0 0 0 2 2h7.63a2 2 0 0 0 2-2z" fill="#f7f7f7" data-original="#f7f7f7" class=""></path><path d="m60 38.34a2 2 0 0 0 -2-2h-7.63a2 2 0 0 0 -2 2v3.66h11.63z" fill="#25d838" data-original="#fa5b6e" class=""></path><g fill="#f7f7f7"><path d="m8.05 28.28h3.53a1 1 0 0 0 0-2h-3.53a1 1 0 0 0 0 2z" fill="#f7f7f7" data-original="#f7f7f7" class=""></path><path d="m30.23 17.36h3.54a1 1 0 0 0 0-2h-3.54a1 1 0 0 0 0 2z" fill="#f7f7f7" data-original="#f7f7f7" class=""></path><path d="m52.42 40.26h3.58a1 1 0 0 0 0-2h-3.58a1 1 0 0 0 0 2z" fill="#f7f7f7" data-original="#f7f7f7" class=""></path><path d="m52.42 17.36h3.58a1 1 0 0 0 0-2h-3.58a1 1 0 0 0 0 2z" fill="#f7f7f7" data-original="#f7f7f7" class=""></path></g></g></g></svg>