<svg width="24" height="24" viewBox="0 0 24 24" fill="none" xmlns="http://www.w3.org/2000/svg">
<path d="M7.71429 6.85718L12 11.1429M12 11.1429L16.2857 6.85718M12 11.1429V0.857178" stroke="#710FD8" stroke-linecap="round" stroke-linejoin="round"/>
<path d="M20.5714 7.71436C21.0261 7.71436 21.4621 7.89497 21.7836 8.21646C22.1051 8.53795 22.2857 8.97398 22.2857 9.42864V21.4286C22.2857 21.8833 22.1051 22.3193 21.7836 22.6408C21.4621 22.9623 21.0261 23.1429 20.5714 23.1429H3.42858C2.97392 23.1429 2.53789 22.9623 2.2164 22.6408C1.89491 22.3193 1.71429 21.8833 1.71429 21.4286V9.42864C1.71429 8.97398 1.89491 8.53795 2.2164 8.21646C2.53789 7.89497 2.97392 7.71436 3.42858 7.71436" stroke="#710FD8" stroke-linecap="round" stroke-linejoin="round"/>
<path d="M1.71429 9.87427L12 17.1428L22.2857 9.87427" stroke="#710FD8" stroke-linecap="round" stroke-linejoin="round"/>
</svg>
