<svg width="24" height="24" viewBox="0 0 24 24" fill="none" xmlns="http://www.w3.org/2000/svg">
<path d="M16.5907 7.40926C16.1688 6.98745 15.5966 6.75049 15 6.75049C14.4034 6.75049 13.8312 6.98745 13.4092 7.40926L13.0605 7.75726L14.121 8.81776L14.4697 8.46976C14.6112 8.33314 14.8007 8.25754 14.9973 8.25925C15.1939 8.26096 15.3821 8.33984 15.5211 8.47889C15.6602 8.61795 15.739 8.80606 15.7408 9.00271C15.7425 9.19935 15.6669 9.38881 15.5303 9.53026L13.0605 12L14.121 13.0605L16.5907 10.5908C17.0126 10.1688 17.2495 9.59663 17.2495 9.00001C17.2495 8.40339 17.0126 7.83119 16.5907 7.40926ZM9.53025 15.5303C9.3888 15.6669 9.19935 15.7425 9.0027 15.7408C8.80605 15.7391 8.61794 15.6602 8.47889 15.5211C8.33983 15.3821 8.26095 15.194 8.25924 14.9973C8.25754 14.8007 8.33313 14.6112 8.46975 14.4698L10.9395 12L9.879 10.9395L7.40925 13.4093C7.19435 13.6168 7.02294 13.8651 6.90502 14.1396C6.7871 14.4141 6.72503 14.7094 6.72244 15.0081C6.71984 15.3069 6.77677 15.6031 6.8899 15.8797C7.00303 16.1562 7.1701 16.4074 7.38136 16.6186C7.59262 16.8299 7.84384 16.997 8.12035 17.1101C8.39687 17.2232 8.69315 17.2802 8.9919 17.2776C9.29066 17.275 9.5859 17.2129 9.86041 17.095C10.1349 16.9771 10.3832 16.8057 10.5908 16.5908L10.9395 16.2428L9.879 15.1823L9.53025 15.5303ZM10.5908 7.41001C10.1647 7.01008 9.59972 6.79161 9.01543 6.80083C8.43114 6.81004 7.87336 7.04621 7.4601 7.45937C7.04684 7.87253 6.81054 8.43026 6.80119 9.01455C6.79184 9.59883 7.01018 10.1638 7.41 10.59L7.758 10.9388L8.8185 9.87826L8.4705 9.52951C8.33388 9.38806 8.25829 9.1986 8.25999 9.00196C8.2617 8.80531 8.34058 8.6172 8.47964 8.47814C8.61869 8.33909 8.8068 8.26021 9.00345 8.2585C9.2001 8.25679 9.38955 8.33239 9.531 8.46901L12 10.9395L13.0605 9.87901L10.5908 7.41001Z" fill="#710FD8"/>
<path d="M16.5908 13.4093L16.2428 13.0605L15.1823 14.121L15.5303 14.4698C15.6669 14.6112 15.7425 14.8007 15.7408 14.9973C15.7391 15.194 15.6602 15.3821 15.5211 15.5212C15.3821 15.6602 15.194 15.7391 14.9973 15.7408C14.8007 15.7425 14.6112 15.6669 14.4698 15.5303L12 13.0605L10.9395 14.121L13.4093 16.5908C13.8336 17.0007 14.402 17.2274 14.9919 17.2223C15.5819 17.2172 16.1462 16.9806 16.5634 16.5634C16.9805 16.1462 17.2172 15.5819 17.2223 14.992C17.2274 14.402 17.0006 13.8337 16.5908 13.4093Z" fill="#710FD8"/>
<path d="M12 23.25C11.8672 23.25 11.7367 23.2148 11.622 23.148L2.622 17.898C2.50877 17.8319 2.41483 17.7373 2.34956 17.6236C2.28429 17.5099 2.24996 17.3811 2.25 17.25V6.74998C2.24996 6.61888 2.28429 6.49005 2.34956 6.37636C2.41483 6.26266 2.50877 6.16805 2.622 6.10198L11.622 0.851978C11.7367 0.785032 11.8672 0.749756 12 0.749756C12.1328 0.749756 12.2633 0.785032 12.378 0.851978L21.378 6.10198L20.622 7.39798L12 2.36848L3.75 7.18048V16.8195L12 21.6322L20.25 16.8195V11.25H21.75V17.25C21.75 17.3811 21.7157 17.5099 21.6504 17.6236C21.5852 17.7373 21.4912 17.8319 21.378 17.898L12.378 23.148C12.2633 23.2148 12.1328 23.25 12 23.25Z" fill="#710FD8"/>
</svg>
