<svg width="512" height="512" viewBox="0 0 512 512" fill="none" xmlns="http://www.w3.org/2000/svg">
<path d="M385.758 84.0007H127.242H96.472C86.2724 84.0007 78 92.2731 78 102.472V317.897H127.242H219.569H293.431H385.759H435V102.472C435 92.2731 426.728 84 416.528 84H385.758V84.0007Z" fill="#E7ECED"/>
<path d="M410.379 108.62H102.62V305.586H410.379V108.62Z" fill="#28384C"/>
<path d="M158.018 133.242V250.19H304.554L330.362 224.327V133.242H158.018Z" fill="#E7ECED"/>
<path d="M416.528 354.828H96.472C86.2724 354.828 78 346.555 78 336.357V305.587H435V336.357C435 346.555 426.728 354.828 416.528 354.828Z" fill="#AFB6BB"/>
<path d="M274.967 336.364H238.035C234.638 336.364 231.88 333.606 231.88 330.208C231.88 326.81 234.638 324.053 238.035 324.053H274.967C278.364 324.053 281.122 326.81 281.122 330.208C281.122 333.606 278.364 336.364 274.967 336.364Z" fill="white"/>
<path d="M336.517 428.69H176.482C169.681 428.69 164.172 423.181 164.172 416.38C164.172 409.578 169.681 404.069 176.482 404.069H336.516C343.318 404.069 348.827 409.578 348.827 416.38C348.827 423.181 343.318 428.69 336.517 428.69Z" fill="#AFB6BB"/>
<path d="M287.276 354.828H225.724C225.724 382.047 216.011 404.07 188.793 404.07H324.207C296.989 404.07 287.276 382.047 287.276 354.828Z" fill="#6C797A"/>
<path d="M361.612 263.559L342.98 244.927C342.66 244.607 342.66 244.09 342.98 243.769L355.02 231.723L293.468 213.258L311.933 274.81L323.665 263.078C324.397 262.346 325.585 262.346 326.324 263.078L344.205 280.965L361.612 263.559Z" fill="#7383BF"/>
<path d="M330.362 133.242H158.018V164.018H330.362V133.242Z" fill="#710FD8"/>
<path d="M231.88 200.948H182.639V225.569H231.88V200.948Z" fill="#25D838"/>
</svg>
