<svg xmlns="http://www.w3.org/2000/svg" version="1.1" xmlns:xlink="http://www.w3.org/1999/xlink" xmlns:svgjs="http://svgjs.com/svgjs" width="512" height="512" x="0" y="0" viewBox="0 0 60 60" style="enable-background:new 0 0 512 512" xml:space="preserve" class="hovered-paths"><g><g xmlns="http://www.w3.org/2000/svg" id="Icons"><path d="M56,22H40V4a4,4,0,0,0-4-4H4A4,4,0,0,0,0,4V27a4,4,0,0,0,4,4H6v4.43a2.558,2.558,0,0,0,1.418,2.321,2.395,2.395,0,0,0,2.534-.261L18.342,31H20V49a4,4,0,0,0,4,4H41.658l8.391,6.49a2.393,2.393,0,0,0,2.533.261A2.558,2.558,0,0,0,54,57.43V53h2a4,4,0,0,0,4-4V26A4,4,0,0,0,56,22ZM18,29a1,1,0,0,0-.612.209l-8.659,6.7a.381.381,0,0,1-.429.047A.556.556,0,0,1,8,35.43V30a1,1,0,0,0-1-1H4a2,2,0,0,1-2-2V4A2,2,0,0,1,4,2H36a2,2,0,0,1,2,2V27a2,2,0,0,1-2,2Zm9,2h2v2a1,1,0,0,1-2,0ZM58,49a2,2,0,0,1-2,2H53a1,1,0,0,0-1,1v5.43a.556.556,0,0,1-.3.525.38.38,0,0,1-.428-.047l-8.66-6.7A1,1,0,0,0,42,51H24a2,2,0,0,1-2-2V31h3v2a3,3,0,0,0,6,0V31h4v4a1,1,0,0,0,2,0V30.858A4,4,0,0,0,40,27V24H56a2,2,0,0,1,2,2Z" fill="#303434" data-original="#303434" class="hovered-path"></path><path d="M16,11a1,1,0,0,0-1,1v6a1,1,0,0,0,2,0V12A1,1,0,0,0,16,11Z" fill="#303434" data-original="#303434" class="hovered-path"></path><path d="M12,10a1,1,0,0,0-1,1v8a1,1,0,0,0,2,0V11A1,1,0,0,0,12,10Z" fill="#303434" data-original="#303434" class="hovered-path"></path><path d="M33,16V14a1,1,0,0,0-2,0v2a1,1,0,0,0,2,0Z" fill="#303434" data-original="#303434" class="hovered-path"></path><path d="M7,14v2a1,1,0,0,0,2,0V14a1,1,0,0,0-2,0Z" fill="#303434" data-original="#303434" class="hovered-path"></path><path d="M24,11a1,1,0,0,0-1,1v6a1,1,0,0,0,2,0V12A1,1,0,0,0,24,11Z" fill="#303434" data-original="#303434" class="hovered-path"></path><path d="M29,19V11a1,1,0,0,0-2,0v8a1,1,0,0,0,2,0Z" fill="#303434" data-original="#303434" class="hovered-path"></path><path d="M20,7a1,1,0,0,0-1,1V22a1,1,0,0,0,2,0V8A1,1,0,0,0,20,7Z" fill="#303434" data-original="#303434" class="hovered-path"></path><path d="M7,11a1,1,0,0,0,1-1V8A1,1,0,0,1,9,7h2a1,1,0,0,0,0-2H9A3,3,0,0,0,6,8v2A1,1,0,0,0,7,11Z" fill="#303434" data-original="#303434" class="hovered-path"></path><path d="M31,5H29a1,1,0,0,0,0,2h2a1,1,0,0,1,1,1v2a1,1,0,0,0,2,0V8A3,3,0,0,0,31,5Z" fill="#303434" data-original="#303434" class="hovered-path"></path><path d="M11,23H9a1,1,0,0,1-1-1V20a1,1,0,0,0-2,0v2a3,3,0,0,0,3,3h2a1,1,0,0,0,0-2Z" fill="#303434" data-original="#303434" class="hovered-path"></path><path d="M33,19a1,1,0,0,0-1,1v2a1,1,0,0,1-1,1H29a1,1,0,0,0,0,2h2a3,3,0,0,0,3-3V20A1,1,0,0,0,33,19Z" fill="#303434" data-original="#303434" class="hovered-path"></path><path d="M52,26a3,3,0,0,0-3,3v4a3,3,0,0,0,6,0V29A3,3,0,0,0,52,26Zm1,7a1,1,0,0,1-2,0V29a1,1,0,0,1,2,0Z" fill="#303434" data-original="#303434" class="hovered-path"></path><path d="M44,26a3,3,0,0,0-3,3v4a3,3,0,0,0,6,0V29A3,3,0,0,0,44,26Zm1,7a1,1,0,0,1-2,0V29a1,1,0,0,1,2,0Z" fill="#303434" data-original="#303434" class="hovered-path"></path><path d="M36,38a3,3,0,0,0-3,3v4a3,3,0,0,0,6,0V41A3,3,0,0,0,36,38Zm1,7a1,1,0,0,1-2,0V41a1,1,0,0,1,2,0Z" fill="#303434" data-original="#303434" class="hovered-path"></path><path d="M28,38a3,3,0,0,0-3,3v4a3,3,0,0,0,6,0V41A3,3,0,0,0,28,38Zm1,7a1,1,0,0,1-2,0V41a1,1,0,0,1,2,0Z" fill="#303434" data-original="#303434" class="hovered-path"></path><path d="M44,38a1,1,0,0,0-1,1v8a1,1,0,0,0,2,0V39A1,1,0,0,0,44,38Z" fill="#303434" data-original="#303434" class="hovered-path"></path><path d="M52,38a1,1,0,0,0-1,1v8a1,1,0,0,0,2,0V39A1,1,0,0,0,52,38Z" fill="#303434" data-original="#303434" class="hovered-path"></path></g></g></svg>