<svg width="85" height="72" viewBox="0 0 85 72" fill="none" xmlns="http://www.w3.org/2000/svg">
<path d="M79.3333 26.4H56.6667V4.8C56.6667 3.52696 56.0696 2.30606 55.0069 1.40589C53.9442 0.505713 52.5029 0 51 0L5.66667 0C4.16377 0 2.72243 0.505713 1.65973 1.40589C0.597022 2.30606 0 3.52696 0 4.8L0 32.4C0 33.673 0.597022 34.8939 1.65973 35.7941C2.72243 36.6943 4.16377 37.2 5.66667 37.2H8.5V42.516C8.49174 43.0933 8.67585 43.6608 9.03119 44.1535C9.38652 44.6462 9.89867 45.044 10.5088 45.3012C11.0814 45.5403 11.722 45.6378 12.357 45.5824C12.992 45.527 13.5957 45.321 14.0987 44.988L25.9845 37.2H28.3333V58.8C28.3333 60.073 28.9304 61.2939 29.9931 62.1941C31.0558 63.0943 32.4971 63.6 34 63.6H59.0155L70.9027 71.388C71.4054 71.721 72.0089 71.9271 72.6437 71.9825C73.2785 72.0379 73.9189 71.9404 74.4912 71.7012C75.1013 71.444 75.6135 71.0462 75.9688 70.5535C76.3241 70.0608 76.5083 69.4933 76.5 68.916V63.6H79.3333C80.8362 63.6 82.2776 63.0943 83.3403 62.1941C84.403 61.2939 85 60.073 85 58.8V31.2C85 29.927 84.403 28.7061 83.3403 27.8059C82.2776 26.9057 80.8362 26.4 79.3333 26.4ZM25.5 34.8C25.1862 34.8 24.8812 34.8882 24.633 35.0508L12.3661 43.0908C12.2834 43.1512 12.181 43.1888 12.0725 43.1989C11.964 43.209 11.8545 43.191 11.7583 43.1472C11.6231 43.088 11.5109 42.9969 11.4355 42.8849C11.3601 42.7729 11.3246 42.6447 11.3333 42.516V36C11.3333 35.6817 11.1841 35.3765 10.9184 35.1515C10.6527 34.9264 10.2924 34.8 9.91667 34.8H5.66667C4.91522 34.8 4.19455 34.5471 3.6632 34.0971C3.13184 33.647 2.83333 33.0365 2.83333 32.4V4.8C2.83333 4.16348 3.13184 3.55303 3.6632 3.10294C4.19455 2.65286 4.91522 2.4 5.66667 2.4H51C51.7514 2.4 52.4721 2.65286 53.0035 3.10294C53.5348 3.55303 53.8333 4.16348 53.8333 4.8V32.4C53.8333 33.0365 53.5348 33.647 53.0035 34.0971C52.4721 34.5471 51.7514 34.8 51 34.8H25.5ZM38.25 37.2H41.0833V39.6C41.0833 39.9183 40.9341 40.2235 40.6684 40.4485C40.4027 40.6736 40.0424 40.8 39.6667 40.8C39.2909 40.8 38.9306 40.6736 38.6649 40.4485C38.3993 40.2235 38.25 39.9183 38.25 39.6V37.2ZM82.1667 58.8C82.1667 59.4365 81.8682 60.047 81.3368 60.4971C80.8055 60.9471 80.0848 61.2 79.3333 61.2H75.0833C74.7076 61.2 74.3473 61.3264 74.0816 61.5515C73.8159 61.7765 73.6667 62.0817 73.6667 62.4V68.916C73.6751 69.0446 73.6395 69.1724 73.5641 69.2842C73.4887 69.396 73.3767 69.4869 73.2417 69.546C73.1457 69.5897 73.0364 69.6076 72.9282 69.5976C72.8199 69.5875 72.7178 69.5499 72.6353 69.4896L60.367 61.4496C60.1186 61.2874 59.8136 61.1996 59.5 61.2H34C33.2486 61.2 32.5279 60.9471 31.9965 60.4971C31.4652 60.047 31.1667 59.4365 31.1667 58.8V37.2H35.4167V39.6C35.4167 40.5548 35.8644 41.4705 36.6615 42.1456C37.4585 42.8207 38.5395 43.2 39.6667 43.2C40.7938 43.2 41.8748 42.8207 42.6719 42.1456C43.4689 41.4705 43.9167 40.5548 43.9167 39.6V37.2H49.5833V42C49.5833 42.3183 49.7326 42.6235 49.9983 42.8485C50.2639 43.0736 50.6243 43.2 51 43.2C51.3757 43.2 51.7361 43.0736 52.0017 42.8485C52.2674 42.6235 52.4167 42.3183 52.4167 42V37.0296C53.6295 36.7643 54.7045 36.1661 55.4734 35.3285C56.2424 34.4909 56.662 33.4611 56.6667 32.4V28.8H79.3333C80.0848 28.8 80.8055 29.0529 81.3368 29.5029C81.8682 29.953 82.1667 30.5635 82.1667 31.2V58.8Z" fill="white"/>
<path d="M22.6667 13.2C22.2909 13.2 21.9306 13.3264 21.6649 13.5514C21.3993 13.7765 21.25 14.0817 21.25 14.4V21.6C21.25 21.9182 21.3993 22.2234 21.6649 22.4485C21.9306 22.6735 22.2909 22.8 22.6667 22.8C23.0424 22.8 23.4027 22.6735 23.6684 22.4485C23.9341 22.2234 24.0833 21.9182 24.0833 21.6V14.4C24.0833 14.0817 23.9341 13.7765 23.6684 13.5514C23.4027 13.3264 23.0424 13.2 22.6667 13.2Z" fill="white"/>
<path d="M17 12C16.6243 12 16.2639 12.1264 15.9982 12.3515C15.7326 12.5765 15.5833 12.8817 15.5833 13.2V22.8C15.5833 23.1183 15.7326 23.4235 15.9982 23.6485C16.2639 23.8736 16.6243 24 17 24C17.3757 24 17.736 23.8736 18.0017 23.6485C18.2674 23.4235 18.4166 23.1183 18.4166 22.8V13.2C18.4166 12.8817 18.2674 12.5765 18.0017 12.3515C17.736 12.1264 17.3757 12 17 12Z" fill="white"/>
<path d="M46.75 19.2001V16.8001C46.75 16.4818 46.6008 16.1766 46.3351 15.9516C46.0694 15.7265 45.7091 15.6001 45.3334 15.6001C44.9576 15.6001 44.5973 15.7265 44.3316 15.9516C44.0659 16.1766 43.9167 16.4818 43.9167 16.8001V19.2001C43.9167 19.5184 44.0659 19.8236 44.3316 20.0486C44.5973 20.2737 44.9576 20.4001 45.3334 20.4001C45.7091 20.4001 46.0694 20.2737 46.3351 20.0486C46.6008 19.8236 46.75 19.5184 46.75 19.2001Z" fill="white"/>
<path d="M9.91666 16.8001V19.2001C9.91666 19.5184 10.0659 19.8236 10.3316 20.0486C10.5973 20.2737 10.9576 20.4001 11.3333 20.4001C11.709 20.4001 12.0694 20.2737 12.3351 20.0486C12.6007 19.8236 12.75 19.5184 12.75 19.2001V16.8001C12.75 16.4818 12.6007 16.1766 12.3351 15.9516C12.0694 15.7265 11.709 15.6001 11.3333 15.6001C10.9576 15.6001 10.5973 15.7265 10.3316 15.9516C10.0659 16.1766 9.91666 16.4818 9.91666 16.8001Z" fill="white"/>
<path d="M34 13.2C33.6243 13.2 33.2639 13.3264 32.9982 13.5514C32.7326 13.7765 32.5833 14.0817 32.5833 14.4V21.6C32.5833 21.9182 32.7326 22.2234 32.9982 22.4485C33.2639 22.6735 33.6243 22.8 34 22.8C34.3757 22.8 34.736 22.6735 35.0017 22.4485C35.2674 22.2234 35.4166 21.9182 35.4166 21.6V14.4C35.4166 14.0817 35.2674 13.7765 35.0017 13.5514C34.736 13.3264 34.3757 13.2 34 13.2Z" fill="white"/>
<path d="M41.0833 22.8V13.2C41.0833 12.8817 40.9341 12.5765 40.6684 12.3515C40.4027 12.1264 40.0424 12 39.6667 12C39.2909 12 38.9306 12.1264 38.6649 12.3515C38.3993 12.5765 38.25 12.8817 38.25 13.2V22.8C38.25 23.1183 38.3993 23.4235 38.6649 23.6485C38.9306 23.8736 39.2909 24 39.6667 24C40.0424 24 40.4027 23.8736 40.6684 23.6485C40.9341 23.4235 41.0833 23.1183 41.0833 22.8Z" fill="white"/>
<path d="M28.3334 8.3999C27.9576 8.3999 27.5973 8.52633 27.3316 8.75137C27.0659 8.97642 26.9167 9.28164 26.9167 9.5999V26.3999C26.9167 26.7182 27.0659 27.0234 27.3316 27.2484C27.5973 27.4735 27.9576 27.5999 28.3334 27.5999C28.7091 27.5999 29.0694 27.4735 29.3351 27.2484C29.6008 27.0234 29.75 26.7182 29.75 26.3999V9.5999C29.75 9.28164 29.6008 8.97642 29.3351 8.75137C29.0694 8.52633 28.7091 8.3999 28.3334 8.3999Z" fill="white"/>
<path d="M9.91667 13.2C10.2924 13.2 10.6527 13.0736 10.9184 12.8485C11.1841 12.6235 11.3333 12.3183 11.3333 12V9.6C11.3333 9.28174 11.4826 8.97652 11.7483 8.75147C12.0139 8.52643 12.3743 8.4 12.75 8.4H15.5833C15.9591 8.4 16.3194 8.27357 16.5851 8.04853C16.8507 7.82348 17 7.51826 17 7.2C17 6.88174 16.8507 6.57652 16.5851 6.35147C16.3194 6.12643 15.9591 6 15.5833 6H12.75C11.6228 6 10.5418 6.37928 9.7448 7.05442C8.94777 7.72955 8.5 8.64522 8.5 9.6V12C8.5 12.3183 8.64926 12.6235 8.91493 12.8485C9.18061 13.0736 9.54094 13.2 9.91667 13.2Z" fill="white"/>
<path d="M43.9167 6H41.0834C40.7076 6 40.3473 6.12643 40.0816 6.35147C39.8159 6.57652 39.6667 6.88174 39.6667 7.2C39.6667 7.51826 39.8159 7.82348 40.0816 8.04853C40.3473 8.27357 40.7076 8.4 41.0834 8.4H43.9167C44.2924 8.4 44.6527 8.52643 44.9184 8.75147C45.1841 8.97652 45.3334 9.28174 45.3334 9.6V12C45.3334 12.3183 45.4826 12.6235 45.7483 12.8485C46.014 13.0736 46.3743 13.2 46.75 13.2C47.1257 13.2 47.4861 13.0736 47.7518 12.8485C48.0174 12.6235 48.1667 12.3183 48.1667 12V9.6C48.1667 8.64522 47.7189 7.72955 46.9219 7.05442C46.1249 6.37928 45.0439 6 43.9167 6Z" fill="white"/>
<path d="M15.5833 27.6H12.75C12.3743 27.6 12.0139 27.4736 11.7483 27.2486C11.4826 27.0235 11.3333 26.7183 11.3333 26.4V24C11.3333 23.6818 11.1841 23.3766 10.9184 23.1515C10.6527 22.9265 10.2924 22.8 9.91667 22.8C9.54094 22.8 9.18061 22.9265 8.91493 23.1515C8.64926 23.3766 8.5 23.6818 8.5 24V26.4C8.5 27.3548 8.94777 28.2705 9.7448 28.9456C10.5418 29.6208 11.6228 30 12.75 30H15.5833C15.9591 30 16.3194 29.8736 16.5851 29.6486C16.8507 29.4235 17 29.1183 17 28.8C17 28.4818 16.8507 28.1766 16.5851 27.9515C16.3194 27.7265 15.9591 27.6 15.5833 27.6Z" fill="white"/>
<path d="M46.75 22.8C46.3743 22.8 46.014 22.9265 45.7483 23.1515C45.4826 23.3766 45.3334 23.6818 45.3334 24V26.4C45.3334 26.7183 45.1841 27.0235 44.9184 27.2486C44.6527 27.4736 44.2924 27.6 43.9167 27.6H41.0834C40.7076 27.6 40.3473 27.7265 40.0816 27.9515C39.8159 28.1766 39.6667 28.4818 39.6667 28.8C39.6667 29.1183 39.8159 29.4235 40.0816 29.6486C40.3473 29.8736 40.7076 30 41.0834 30H43.9167C45.0439 30 46.1249 29.6208 46.9219 28.9456C47.7189 28.2705 48.1667 27.3548 48.1667 26.4V24C48.1667 23.6818 48.0174 23.3766 47.7518 23.1515C47.4861 22.9265 47.1257 22.8 46.75 22.8Z" fill="white"/>
<path d="M73.6667 31.2C72.5395 31.2 71.4585 31.5792 70.6615 32.2544C69.8645 32.9295 69.4167 33.8452 69.4167 34.8V39.6C69.4167 40.5547 69.8645 41.4704 70.6615 42.1455C71.4585 42.8207 72.5395 43.2 73.6667 43.2C74.7939 43.2 75.8749 42.8207 76.6719 42.1455C77.4689 41.4704 77.9167 40.5547 77.9167 39.6V34.8C77.9167 33.8452 77.4689 32.9295 76.6719 32.2544C75.8749 31.5792 74.7939 31.2 73.6667 31.2ZM75.0834 39.6C75.0834 39.9182 74.9341 40.2234 74.6684 40.4485C74.4027 40.6735 74.0424 40.8 73.6667 40.8C73.291 40.8 72.9306 40.6735 72.665 40.4485C72.3993 40.2234 72.25 39.9182 72.25 39.6V34.8C72.25 34.4817 72.3993 34.1765 72.665 33.9514C72.9306 33.7264 73.291 33.6 73.6667 33.6C74.0424 33.6 74.4027 33.7264 74.6684 33.9514C74.9341 34.1765 75.0834 34.4817 75.0834 34.8V39.6Z" fill="white"/>
<path d="M62.3333 31.2C61.2061 31.2 60.1251 31.5792 59.3281 32.2544C58.5311 32.9295 58.0833 33.8452 58.0833 34.8V39.6C58.0833 40.5547 58.5311 41.4704 59.3281 42.1455C60.1251 42.8207 61.2061 43.2 62.3333 43.2C63.4605 43.2 64.5415 42.8207 65.3385 42.1455C66.1355 41.4704 66.5833 40.5547 66.5833 39.6V34.8C66.5833 33.8452 66.1355 32.9295 65.3385 32.2544C64.5415 31.5792 63.4605 31.2 62.3333 31.2ZM63.75 39.6C63.75 39.9182 63.6007 40.2234 63.335 40.4485C63.0694 40.6735 62.709 40.8 62.3333 40.8C61.9576 40.8 61.5973 40.6735 61.3316 40.4485C61.0659 40.2234 60.9166 39.9182 60.9166 39.6V34.8C60.9166 34.4817 61.0659 34.1765 61.3316 33.9514C61.5973 33.7264 61.9576 33.6 62.3333 33.6C62.709 33.6 63.0694 33.7264 63.335 33.9514C63.6007 34.1765 63.75 34.4817 63.75 34.8V39.6Z" fill="white"/>
<path d="M51 45.6001C49.8728 45.6001 48.7918 45.9794 47.9948 46.6545C47.1978 47.3296 46.75 48.2453 46.75 49.2001V54.0001C46.75 54.9549 47.1978 55.8706 47.9948 56.5457C48.7918 57.2208 49.8728 57.6001 51 57.6001C52.1272 57.6001 53.2082 57.2208 54.0052 56.5457C54.8022 55.8706 55.25 54.9549 55.25 54.0001V49.2001C55.25 48.2453 54.8022 47.3296 54.0052 46.6545C53.2082 45.9794 52.1272 45.6001 51 45.6001ZM52.4167 54.0001C52.4167 54.3184 52.2674 54.6236 52.0017 54.8486C51.7361 55.0737 51.3757 55.2001 51 55.2001C50.6243 55.2001 50.2639 55.0737 49.9983 54.8486C49.7326 54.6236 49.5833 54.3184 49.5833 54.0001V49.2001C49.5833 48.8818 49.7326 48.5766 49.9983 48.3516C50.2639 48.1265 50.6243 48.0001 51 48.0001C51.3757 48.0001 51.7361 48.1265 52.0017 48.3516C52.2674 48.5766 52.4167 48.8818 52.4167 49.2001V54.0001Z" fill="white"/>
<path d="M39.6667 45.6001C38.5395 45.6001 37.4585 45.9794 36.6615 46.6545C35.8645 47.3296 35.4167 48.2453 35.4167 49.2001V54.0001C35.4167 54.9549 35.8645 55.8706 36.6615 56.5457C37.4585 57.2208 38.5395 57.6001 39.6667 57.6001C40.7939 57.6001 41.8749 57.2208 42.6719 56.5457C43.4689 55.8706 43.9167 54.9549 43.9167 54.0001V49.2001C43.9167 48.2453 43.4689 47.3296 42.6719 46.6545C41.8749 45.9794 40.7939 45.6001 39.6667 45.6001ZM41.0834 54.0001C41.0834 54.3184 40.9341 54.6236 40.6684 54.8486C40.4027 55.0737 40.0424 55.2001 39.6667 55.2001C39.291 55.2001 38.9306 55.0737 38.665 54.8486C38.3993 54.6236 38.25 54.3184 38.25 54.0001V49.2001C38.25 48.8818 38.3993 48.5766 38.665 48.3516C38.9306 48.1265 39.291 48.0001 39.6667 48.0001C40.0424 48.0001 40.4027 48.1265 40.6684 48.3516C40.9341 48.5766 41.0834 48.8818 41.0834 49.2001V54.0001Z" fill="white"/>
<path d="M62.3334 45.6001C61.9576 45.6001 61.5973 45.7265 61.3316 45.9516C61.0659 46.1766 60.9167 46.4818 60.9167 46.8001V56.4001C60.9167 56.7184 61.0659 57.0236 61.3316 57.2486C61.5973 57.4737 61.9576 57.6001 62.3334 57.6001C62.7091 57.6001 63.0694 57.4737 63.3351 57.2486C63.6008 57.0236 63.75 56.7184 63.75 56.4001V46.8001C63.75 46.4818 63.6008 46.1766 63.3351 45.9516C63.0694 45.7265 62.7091 45.6001 62.3334 45.6001Z" fill="white"/>
<path d="M73.6667 45.6001C73.2909 45.6001 72.9306 45.7265 72.6649 45.9516C72.3993 46.1766 72.25 46.4818 72.25 46.8001V56.4001C72.25 56.7184 72.3993 57.0236 72.6649 57.2486C72.9306 57.4737 73.2909 57.6001 73.6667 57.6001C74.0424 57.6001 74.4027 57.4737 74.6684 57.2486C74.9341 57.0236 75.0833 56.7184 75.0833 56.4001V46.8001C75.0833 46.4818 74.9341 46.1766 74.6684 45.9516C74.4027 45.7265 74.0424 45.6001 73.6667 45.6001Z" fill="white"/>
</svg>
