<svg width="85" height="72" viewBox="0 0 85 72" fill="none" xmlns="http://www.w3.org/2000/svg">
<path d="M44.1732 65.0551C44.1732 65.8375 43.4219 66.4725 42.5 66.4725C41.578 66.4725 40.8268 65.8375 40.8268 65.0551C40.8268 64.2742 41.578 63.6378 42.5 63.6378C43.4219 63.6378 44.1732 64.2742 44.1732 65.0551ZM13.3232 30.189C12.3991 30.189 11.65 30.8235 11.65 31.6063C11.65 32.3891 12.3991 33.0237 13.3232 33.0237H16.7323V47.1969C16.7323 47.9797 17.4814 48.6142 18.4055 48.6142C19.3296 48.6142 20.0787 47.9797 20.0787 47.1969V33.0237H23.4878C24.4119 33.0237 25.161 32.3891 25.161 31.6063C25.161 30.8235 24.4119 30.189 23.4878 30.189H13.3232ZM71.2795 19.1339C75.1546 19.1339 78.3071 21.8043 78.3071 25.0866C78.3071 28.369 75.1546 31.0394 71.2795 31.0394C67.4045 31.0394 64.252 28.369 64.252 25.0866C64.252 21.8043 67.4045 19.1339 71.2795 19.1339ZM67.5984 25.0866C67.5984 26.806 69.2497 28.2048 71.2795 28.2048C73.3093 28.2048 74.9606 26.806 74.9606 25.0866C74.9606 23.3673 73.3093 21.9685 71.2795 21.9685C69.2497 21.9685 67.5984 23.3673 67.5984 25.0866ZM66.5945 66.4725H50.0295C49.0706 66.4725 48.2962 65.7855 48.36 64.9603C48.4182 64.207 49.1971 63.6378 50.0883 63.6378H64.9213V60.8032H52.5394C49.767 60.8032 47.5197 58.8996 47.5197 56.5512V52.8662C47.5197 50.5178 49.767 48.6142 52.5394 48.6142H64.9213V42.6614H41.8307C40.9066 42.6614 40.1575 42.0269 40.1575 41.2441V14.8819C40.1575 14.0991 40.9066 13.4646 41.8307 13.4646H64.9213V9.77956C64.9213 8.99677 64.1721 8.36223 63.248 8.36223H21.752C20.8278 8.36223 20.0787 8.99677 20.0787 9.77956V23.8111H35.1378C36.0619 23.8111 36.811 24.4456 36.811 25.2284V53.5748C36.811 54.3576 36.0619 54.9922 35.1378 54.9922H20.0787V63.6378H34.9117C35.8029 63.6378 36.5818 64.207 36.64 64.9603C36.7038 65.7855 35.9294 66.4725 34.9705 66.4725H18.4055C17.4814 66.4725 16.7323 65.8379 16.7323 65.0551V54.9922H1.67323C0.749104 54.9922 0 54.3576 0 53.5748V25.2284C0 24.4456 0.749104 23.8111 1.67323 23.8111H16.7323V9.77956C16.7323 7.43119 18.9796 5.52759 21.752 5.52759H63.248C66.0204 5.52759 68.2677 7.43119 68.2677 9.77956V13.4646H83.3268C84.2509 13.4646 85 14.0991 85 14.8819V41.2441C85 42.0269 84.2509 42.6614 83.3268 42.6614H68.2677V48.6142H72.6181C75.3905 48.6142 77.6378 50.5178 77.6378 52.8662V56.5512C77.6378 58.8996 75.3905 60.8032 72.6181 60.8032H68.2677V65.0551C68.2677 65.8379 67.5186 66.4725 66.5945 66.4725ZM33.4646 26.6457H3.34646V52.1575H33.4646V26.6457ZM72.6181 51.4488H52.5394C51.6167 51.4488 50.8661 52.0847 50.8661 52.8662V56.5512C50.8661 57.3327 51.6167 57.9685 52.5394 57.9685H72.6181C73.5407 57.9685 74.2913 57.3327 74.2913 56.5512V52.8662C74.2913 52.0847 73.5407 51.4488 72.6181 51.4488ZM43.5039 39.8268H69.4214L53.9745 27.5957C52.0523 26.0738 49.0408 26.0735 47.1188 27.5957L43.5039 30.4582V39.8268ZM81.6535 16.2992H43.5039V26.5778L44.8335 25.525C48.0372 22.9883 53.0564 22.9884 56.2598 25.525L74.322 39.8268H81.6535V16.2992Z" fill="#303434"/>
</svg>
