<svg xmlns="http://www.w3.org/2000/svg" version="1.1" xmlns:xlink="http://www.w3.org/1999/xlink" xmlns:svgjs="http://svgjs.com/svgjs" width="512" height="512" x="0" y="0" viewBox="0 0 508 508" style="enable-background:new 0 0 512 512" xml:space="preserve" class=""><g><path d="M264 459c0 5.52-4.49 10-10 10s-10-4.48-10-10c0-5.51 4.49-10 10-10s10 4.49 10 10zM79.626 213c-5.523 0-10 4.477-10 10s4.477 10 10 10H100v100c0 5.523 4.477 10 10 10s10-4.477 10-10V233h20.374c5.523 0 10-4.477 10-10s-4.477-10-10-10zM426 135c23.159 0 42 18.841 42 42s-18.841 42-42 42-42-18.841-42-42 18.841-42 42-42zm-22 42c0 12.131 9.869 22 22 22s22-9.869 22-22-9.869-22-22-22-22 9.869-22 22zm-6 292h-99c-5.731 0-10.359-4.847-9.978-10.669.348-5.315 5.003-9.331 10.329-9.331H388v-20h-74c-16.569 0-30-13.431-30-30v-26c0-16.569 13.431-30 30-30h74v-42H250c-5.523 0-10-4.477-10-10V105c0-5.523 4.477-10 10-10h138V69c0-5.523-4.477-10-10-10H130c-5.523 0-10 4.477-10 10v99h90c5.523 0 10 4.477 10 10v200c0 5.523-4.477 10-10 10h-90v61h88.649c5.326 0 9.981 4.016 10.329 9.331.381 5.822-4.247 10.669-9.978 10.669h-99c-5.523 0-10-4.477-10-10v-71H10c-5.523 0-10-4.477-10-10V178c0-5.523 4.477-10 10-10h90V69c0-16.569 13.431-30 30-30h248c16.569 0 30 13.431 30 30v26h90c5.523 0 10 4.477 10 10v186c0 5.523-4.477 10-10 10h-90v42h26c16.569 0 30 13.431 30 30v26c0 16.569-13.431 30-30 30h-26v30c0 5.523-4.477 10-10 10zM200 188H20v180h180zm234 175H314c-5.514 0-10 4.486-10 10v26c0 5.514 4.486 10 10 10h120c5.514 0 10-4.486 10-10v-26c0-5.514-4.486-10-10-10zm-174-82h154.895l-92.318-86.297c-11.488-10.738-29.486-10.74-40.973 0L260 214.899zm228-166H260v72.521l7.946-7.428c19.147-17.898 49.144-17.897 68.289 0L444.183 281H488z" fill="#303434" data-original="#000000" class=""></path></g></svg>