<svg width="73" height="72" viewBox="0 0 73 72" fill="none" xmlns="http://www.w3.org/2000/svg">
<path d="M36.04 20.08H0C0 8.99 8.99001 0 20.08 0H36.04V20.08Z" fill="#710FD8"/>
<path d="M72.0699 20.08H41.4199C41.4199 8.99 50.4099 0 61.4999 0H72.0799V20.08H72.0699Z" fill="#25D838"/>
<path d="M51.9999 46.0292H41.4199V25.9492H72.0699C72.0699 37.0392 63.0799 46.0292 51.9999 46.0292Z" fill="#25D838"/>
<path d="M52.0009 71.9706H25.6309V51.8906H72.0709C72.0709 62.9906 63.0809 71.9706 52.0009 71.9706Z" fill="#710FD8"/>
<path d="M36.04 25.9492H0V40.0992V46.0192V52.8492C0 63.4092 8.56 71.9692 19.12 71.9692H20.08V46.0192H36.04V25.9492Z" fill="#710FD8"/>
</svg>
