<svg width="333" height="73" viewBox="0 0 333 73" fill="none" xmlns="http://www.w3.org/2000/svg">
<path d="M85.76 32.42V0H107.22V5.65H92.61V13.37H105.79V19.02H92.61V32.42H85.76Z" fill="#303434"/>
<path d="M110.93 32.42V0H117.78V26.76H131.67V32.41H110.93V32.42Z" fill="#303434"/>
<path d="M135.33 32.42V0H157.17V5.65H142.18V13.37H156.04V19.02H142.18V26.76H157.23V32.41H135.33V32.42Z" fill="#303434"/>
<path d="M168.16 0L174.7 11.05H174.95L181.52 0H189.26L179.37 16.21L189.48 32.42H181.6L174.95 21.36H174.7L168.05 32.42H160.2L170.35 16.21L160.4 0H168.16Z" fill="#303434"/>
<path d="M192.69 32.42V0H205.67C209.25 0 211.93 0.780004 213.73 2.34C215.53 3.9 216.43 5.89 216.43 8.31C216.43 10.22 215.88 11.76 214.77 12.94C213.66 14.12 212.26 14.9 210.58 15.28V15.6C211.81 15.65 212.97 16 214.05 16.64C215.13 17.28 216.01 18.18 216.69 19.33C217.36 20.48 217.7 21.86 217.7 23.46C217.7 25.18 217.28 26.72 216.43 28.07C215.58 29.42 214.33 30.48 212.67 31.26C211.01 32.04 208.97 32.42 206.54 32.42H192.69V32.42ZM199.54 13.57H204.62C206.02 13.57 207.19 13.21 208.12 12.47C209.05 11.74 209.51 10.73 209.51 9.46C209.51 8.29 209.1 7.34 208.27 6.63C207.44 5.91 206.27 5.55 204.75 5.55H199.54V13.57ZM199.54 26.81H205.13C207.05 26.81 208.45 26.44 209.32 25.7C210.19 24.96 210.63 23.99 210.63 22.77C210.63 21.43 210.15 20.33 209.2 19.48C208.24 18.63 206.94 18.2 205.3 18.2H199.55V26.81H199.54Z" fill="#303434"/>
<path d="M221.25 32.42V0H243.09V5.65H228.1V13.37H241.96V19.02H228.1V26.76H243.15V32.41H221.25V32.42Z" fill="#303434"/>
<path d="M247.66 32.42V0H260.45C264.13 0 266.99 0.960005 269.02 2.88C271.05 4.8 272.07 7.37 272.07 10.59C272.07 12.81 271.58 14.7 270.59 16.27C269.6 17.84 268.19 19.02 266.34 19.82L273.22 32.42H265.65L259.51 20.93H254.51V32.42H247.66ZM254.51 15.42H259.16C263.05 15.42 265 13.81 265 10.59C265 7.27 263.04 5.6 259.13 5.6H254.51V15.42V15.42Z" fill="#303434"/>
<path d="M276.01 32.42V0H288.8C292.48 0 295.34 0.960005 297.37 2.88C299.4 4.8 300.42 7.37 300.42 10.59C300.42 12.81 299.93 14.7 298.94 16.27C297.95 17.84 296.54 19.02 294.69 19.82L301.57 32.42H294L287.86 20.93H282.86V32.42H276.01ZM282.86 15.42H287.51C291.4 15.42 293.35 13.81 293.35 10.59C293.35 7.27 291.39 5.6 287.48 5.6H282.86V15.42V15.42Z" fill="#303434"/>
<path d="M302.47 0H310.15L317.54 13.96H317.86L325.25 0H332.92L321.1 20.96V32.42H314.29V20.96L302.47 0Z" fill="#303434"/>
<path d="M85.76 72.4598V40.0498H98.55C101.01 40.0498 103.1 40.5198 104.83 41.4498C106.56 42.3798 107.88 43.6798 108.8 45.3298C109.71 46.9798 110.17 48.8798 110.17 51.0298C110.17 53.1798 109.71 55.0798 108.78 56.7198C107.85 58.3598 106.51 59.6398 104.75 60.5698C102.99 61.4898 100.87 61.9498 98.38 61.9498H92.62V72.4598H85.76ZM92.61 56.4598H97.26C99.22 56.4598 100.69 55.9598 101.65 54.9498C102.62 53.9398 103.1 52.6398 103.1 51.0298C103.1 49.4198 102.62 48.1198 101.65 47.1298C100.68 46.1398 99.21 45.6498 97.23 45.6498H92.61V56.4598Z" fill="#303434"/>
<path d="M113.73 72.4598V40.0498H120.58V66.8098H134.47V72.4598H113.73Z" fill="#303434"/>
<path d="M144.52 72.4598H137.18L148.37 40.0498H157.2L168.37 72.4598H161.03L158.63 65.0698H146.93L144.52 72.4598ZM148.67 59.7198H156.9L152.91 47.4498H152.66L148.67 59.7198Z" fill="#303434"/>
<path d="M166.15 45.6998V40.0498H192.77V45.6998H182.85V72.4598H176.08V45.6998H166.15Z" fill="#303434"/>
<path d="M196.28 72.4598V40.0498H217.74V45.6998H203.13V53.4198H216.31V59.0698H203.13V72.4598H196.28Z" fill="#303434"/>
<path d="M251.24 56.2501C251.24 59.7901 250.57 62.7901 249.24 65.2701C247.91 67.7501 246.09 69.6401 243.8 70.9401C241.51 72.2401 238.93 72.9001 236.06 72.9001C233.18 72.9001 230.59 72.2501 228.31 70.9401C226.02 69.6301 224.21 67.7301 222.88 65.2501C221.55 62.7701 220.88 59.7701 220.88 56.2501C220.88 52.7101 221.55 49.7101 222.88 47.2301C224.21 44.7501 226.02 42.8601 228.31 41.5601C230.6 40.2601 233.18 39.6001 236.06 39.6001C238.93 39.6001 241.51 40.2501 243.8 41.5601C246.09 42.8601 247.9 44.7501 249.24 47.2301C250.57 49.7101 251.24 52.7201 251.24 56.2501ZM244.29 56.2501C244.29 52.8101 243.54 50.1901 242.04 48.3801C240.54 46.5701 238.55 45.6701 236.06 45.6701C233.57 45.6701 231.58 46.5801 230.08 48.3801C228.58 50.1901 227.84 52.8101 227.84 56.2501C227.84 59.6801 228.59 62.3001 230.08 64.1101C231.58 65.9301 233.57 66.8301 236.06 66.8301C238.55 66.8301 240.54 65.9201 242.04 64.1101C243.54 62.3001 244.29 59.6801 244.29 56.2501Z" fill="#303434"/>
<path d="M255.41 72.4598V40.0498H268.2C271.88 40.0498 274.74 41.0098 276.77 42.9298C278.8 44.8498 279.81 47.4198 279.81 50.6398C279.81 52.8598 279.32 54.7498 278.33 56.3198C277.34 57.8898 275.93 59.0698 274.08 59.8698L280.96 72.4698H273.4L267.26 60.9798H262.26V72.4698H255.41V72.4598ZM262.27 55.4598H266.92C270.81 55.4598 272.76 53.8498 272.76 50.6298C272.76 47.3098 270.8 45.6398 266.89 45.6398H262.27V55.4598V55.4598Z" fill="#303434"/>
<path d="M283.77 40.04H292.22L301.15 61.82H301.53L310.46 40.04H318.91V72.45H312.26V51.35H311.99L303.6 72.29H299.08L290.69 51.27H290.42V72.45H283.77V40.04V40.04Z" fill="#303434"/>
<path d="M36.04 20.4101H0C0 9.32008 8.99001 0.330078 20.08 0.330078H36.04V20.4101Z" fill="#710FD8"/>
<path d="M72.0699 20.4101H41.4199C41.4199 9.32008 50.4099 0.330078 61.4999 0.330078H72.0799V20.4101H72.0699Z" fill="#25D838"/>
<path d="M51.9999 46.3598H41.4199V26.2798H72.0699C72.0699 37.3698 63.0799 46.3598 51.9999 46.3598Z" fill="#25D838"/>
<path d="M51.9999 72.3002H25.6299V52.2202H72.0699C72.0699 63.3202 63.0799 72.3002 51.9999 72.3002Z" fill="#710FD8"/>
<path d="M36.04 26.2798H0V40.4298V46.3498V53.1798C0 63.7398 8.56 72.2998 19.12 72.2998H20.08V46.3498H36.04V26.2798V26.2798Z" fill="#710FD8"/>
</svg>
