<svg width="276" height="64" viewBox="0 0 276 64" fill="none" xmlns="http://www.w3.org/2000/svg">
<path d="M31.5005 17.8564H0C0 7.99448 7.85766 0 17.5508 0H31.5005V17.8564Z" fill="#710FD8"/>
<path d="M62.9913 17.8564H36.2018C36.2018 7.99448 44.0595 0 53.7526 0H63V17.8564H62.9913Z" fill="#25D838"/>
<path d="M45.4492 40.9326H36.2018V23.0762H62.9913C62.9913 32.9381 55.1336 40.9326 45.4492 40.9326Z" fill="#25D838"/>
<path d="M45.4514 64H22.4029V46.1436H62.9935C62.9935 56.0144 55.1358 64 45.4514 64Z" fill="#710FD8"/>
<path d="M31.5005 23.0762H0V35.6593V40.9237V46.9974C0 56.388 7.48182 64.0001 16.7117 64.0001H17.5508V40.9237H31.5005V23.0762V23.0762Z" fill="#710FD8"/>
<path d="M202.859 61V35.5454H220.011V39.9826H208.241V46.0479H219.129V50.485H208.241V56.5628H220.061V61H202.859Z" fill="#303434"/>
<path d="M178.811 39.9826V35.5454H199.717V39.9826H191.924V61H186.604V39.9826H178.811Z" fill="#303434"/>
<path d="M175.653 35.5454V61H170.271V35.5454H175.653Z" fill="#303434"/>
<path d="M160.761 35.5454H166.143V52.076C166.143 53.932 165.7 55.5561 164.813 56.9481C163.935 58.3402 162.704 59.4256 161.122 60.2045C159.539 60.9751 157.696 61.3604 155.591 61.3604C153.478 61.3604 151.63 60.9751 150.048 60.2045C148.465 59.4256 147.235 58.3402 146.356 56.9481C145.478 55.5561 145.039 53.932 145.039 52.076V35.5454H150.42V51.6161C150.42 52.5855 150.632 53.4473 151.054 54.2013C151.485 54.9553 152.09 55.5478 152.869 55.9787C153.648 56.4095 154.555 56.625 155.591 56.625C156.635 56.625 157.542 56.4095 158.313 55.9787C159.092 55.5478 159.692 54.9553 160.115 54.2013C160.546 53.4473 160.761 52.5855 160.761 51.6161V35.5454Z" fill="#303434"/>
<path d="M136.213 42.8662C136.113 41.8636 135.687 41.0847 134.933 40.5295C134.179 39.9744 133.155 39.6968 131.863 39.6968C130.984 39.6968 130.243 39.8211 129.638 40.0697C129.033 40.31 128.569 40.6455 128.246 41.0764C127.931 41.5073 127.773 41.9962 127.773 42.543C127.757 42.9988 127.852 43.3965 128.059 43.7362C128.275 44.0759 128.569 44.3701 128.942 44.6187C129.315 44.859 129.746 45.0703 130.234 45.2526C130.723 45.4266 131.245 45.5757 131.8 45.7L134.087 46.2469C135.198 46.4955 136.217 46.8269 137.145 47.2412C138.073 47.6555 138.877 48.1651 139.556 48.77C140.236 49.3748 140.762 50.0874 141.135 50.9077C141.516 51.7281 141.71 52.6685 141.719 53.7291C141.71 55.2869 141.313 56.6375 140.526 57.781C139.747 58.9161 138.62 59.7986 137.145 60.4283C135.678 61.0498 133.909 61.3605 131.838 61.3605C129.783 61.3605 127.993 61.0456 126.468 60.4159C124.952 59.7862 123.767 58.854 122.914 57.6194C122.069 56.3765 121.625 54.8394 121.584 53.0082H126.792C126.85 53.8617 127.094 54.5743 127.525 55.146C127.964 55.7095 128.548 56.1362 129.277 56.4262C130.015 56.7079 130.848 56.8488 131.776 56.8488C132.687 56.8488 133.478 56.7162 134.15 56.4511C134.829 56.1859 135.355 55.8172 135.728 55.3449C136.101 54.8726 136.287 54.3298 136.287 53.7167C136.287 53.145 136.117 52.6644 135.778 52.2749C135.446 51.8855 134.957 51.554 134.311 51.2806C133.673 51.0072 132.89 50.7586 131.962 50.5349L129.19 49.8388C127.044 49.3168 125.35 48.5007 124.107 47.3903C122.864 46.28 122.247 44.7844 122.255 42.9035C122.247 41.3623 122.657 40.0158 123.485 38.8641C124.322 37.7123 125.47 36.8133 126.928 36.167C128.387 35.5207 130.044 35.1975 131.9 35.1975C133.789 35.1975 135.438 35.5207 136.847 36.167C138.264 36.8133 139.366 37.7123 140.153 38.8641C140.94 40.0158 141.346 41.3499 141.371 42.8662H136.213Z" fill="#303434"/>
<path d="M110.476 35.5454V61H105.094V35.5454H110.476Z" fill="#303434"/>
<path d="M83.5998 61H77.8327L86.62 35.5454H93.5554L102.33 61H96.5632L90.1871 41.3622H89.9883L83.5998 61ZM83.2393 50.9946H96.8615V55.1956H83.2393V50.9946Z" fill="#303434"/>
<path d="M251.551 3.54541H257.579L263.384 14.5078H263.632L269.437 3.54541H275.465L266.18 20.0014V29H260.836V20.0014L251.551 3.54541Z" fill="#303434"/>
<path d="M231.434 29V3.54541H241.476C243.399 3.54541 245.039 3.88928 246.398 4.57702C247.765 5.25647 248.805 6.22178 249.518 7.47297C250.239 8.71586 250.599 10.1783 250.599 11.8604C250.599 13.5507 250.235 15.0049 249.505 16.223C248.776 17.4327 247.72 18.3608 246.336 19.0071C244.961 19.6534 243.295 19.9765 241.34 19.9765H234.615V15.6512H240.47C241.497 15.6512 242.35 15.5104 243.03 15.2286C243.709 14.9469 244.215 14.5243 244.546 13.9609C244.886 13.3974 245.056 12.6973 245.056 11.8604C245.056 11.0152 244.886 10.3026 244.546 9.72261C244.215 9.14259 243.705 8.70343 243.017 8.40514C242.338 8.09856 241.48 7.94527 240.445 7.94527H236.815V29H231.434ZM245.18 17.4161L251.506 29H245.565L239.376 17.4161H245.18Z" fill="#303434"/>
<path d="M208.765 29V3.54541H218.808C220.73 3.54541 222.37 3.88928 223.729 4.57702C225.097 5.25647 226.136 6.22178 226.849 7.47297C227.57 8.71586 227.93 10.1783 227.93 11.8604C227.93 13.5507 227.566 15.0049 226.837 16.223C226.107 17.4327 225.051 18.3608 223.667 19.0071C222.292 19.6534 220.626 19.9765 218.671 19.9765H211.947V15.6512H217.801C218.828 15.6512 219.682 15.5104 220.361 15.2286C221.041 14.9469 221.546 14.5243 221.877 13.9609C222.217 13.3974 222.387 12.6973 222.387 11.8604C222.387 11.0152 222.217 10.3026 221.877 9.72261C221.546 9.14259 221.036 8.70343 220.349 8.40514C219.669 8.09856 218.812 7.94527 217.776 7.94527H214.147V29H208.765ZM222.511 17.4161L228.838 29H222.897L216.707 17.4161H222.511Z" fill="#303434"/>
<path d="M187.634 29V3.54541H204.786V7.98255H193.016V14.0479H203.904V18.485H193.016V24.5628H204.836V29H187.634Z" fill="#303434"/>
<path d="M164.795 29V3.54541H174.986C176.859 3.54541 178.421 3.82299 179.672 4.37815C180.923 4.93331 181.864 5.70391 182.493 6.68994C183.123 7.66769 183.438 8.79458 183.438 10.0706C183.438 11.0649 183.239 11.9391 182.841 12.6931C182.444 13.4389 181.897 14.052 181.201 14.5326C180.513 15.0049 179.726 15.3405 178.839 15.5394V15.788C179.809 15.8294 180.716 16.1028 181.561 16.6083C182.415 17.1137 183.107 17.8222 183.637 18.7336C184.167 19.6368 184.432 20.714 184.432 21.9652C184.432 23.3158 184.097 24.5214 183.426 25.582C182.763 26.6343 181.781 27.467 180.48 28.0802C179.179 28.6934 177.576 29 175.67 29H164.795ZM170.176 24.6001H174.564C176.064 24.6001 177.157 24.3142 177.845 23.7425C178.533 23.1625 178.877 22.3919 178.877 21.4307C178.877 20.7264 178.707 20.105 178.367 19.5664C178.027 19.0278 177.543 18.6052 176.913 18.2986C176.291 17.992 175.55 17.8387 174.688 17.8387H170.176V24.6001ZM170.176 14.197H174.166C174.903 14.197 175.558 14.0686 176.13 13.8117C176.71 13.5466 177.166 13.1737 177.497 12.6931C177.837 12.2126 178.007 11.6367 178.007 10.9655C178.007 10.0458 177.679 9.30417 177.025 8.74072C176.378 8.17728 175.459 7.89555 174.265 7.89555H170.176V14.197Z" fill="#303434"/>
<path d="M145.121 3.54541L150.254 12.2208H150.453L155.611 3.54541H161.689L153.921 16.2727L161.863 29H155.673L150.453 20.3121H150.254L145.034 29H138.869L146.836 16.2727L139.019 3.54541H145.121Z" fill="#303434"/>
<path d="M118.944 29V3.54541H136.096V7.98255H124.326V14.0479H135.214V18.485H124.326V24.5628H136.146V29H118.944Z" fill="#303434"/>
<path d="M99.386 29V3.54541H104.768V24.5628H115.68V29H99.386Z" fill="#303434"/>
<path d="M79.2123 29V3.54541H96.066V7.98255H84.5941V14.0479H94.9474V18.485H84.5941V29H79.2123Z" fill="#303434"/>
</svg>
