<svg width="394" height="74" viewBox="0 0 394 74" fill="none" xmlns="http://www.w3.org/2000/svg">
<path d="M85.76 32.42V0H107.22V5.65H92.61V13.37H105.79V19.02H92.61V32.42H85.76Z" fill="#303434"/>
<path d="M110.93 32.42V0H117.78V26.76H131.67V32.41H110.93V32.42Z" fill="#303434"/>
<path d="M135.33 32.42V0H157.17V5.65H142.18V13.37H156.04V19.02H142.18V26.76H157.23V32.41H135.33V32.42Z" fill="#303434"/>
<path d="M168.16 0L174.7 11.05H174.95L181.52 0H189.26L179.37 16.21L189.48 32.42H181.6L174.95 21.36H174.7L168.05 32.42H160.2L170.35 16.21L160.4 0H168.16Z" fill="#303434"/>
<path d="M192.69 32.42V0H205.67C209.25 0 211.93 0.780004 213.73 2.34C215.53 3.9 216.43 5.89 216.43 8.31C216.43 10.22 215.88 11.76 214.77 12.94C213.66 14.12 212.26 14.9 210.58 15.28V15.6C211.81 15.65 212.97 16 214.05 16.64C215.13 17.28 216.01 18.18 216.69 19.33C217.36 20.48 217.7 21.86 217.7 23.46C217.7 25.18 217.28 26.72 216.43 28.07C215.58 29.42 214.33 30.48 212.67 31.26C211.01 32.04 208.97 32.42 206.54 32.42H192.69V32.42ZM199.54 13.57H204.62C206.02 13.57 207.19 13.21 208.12 12.47C209.05 11.74 209.51 10.73 209.51 9.46C209.51 8.29 209.1 7.34 208.27 6.63C207.44 5.91 206.27 5.55 204.75 5.55H199.54V13.57ZM199.54 26.81H205.13C207.05 26.81 208.45 26.44 209.32 25.7C210.19 24.96 210.63 23.99 210.63 22.77C210.63 21.43 210.15 20.33 209.2 19.48C208.24 18.63 206.94 18.2 205.3 18.2H199.55V26.81H199.54Z" fill="#303434"/>
<path d="M221.25 32.42V0H243.09V5.65H228.1V13.37H241.96V19.02H228.1V26.76H243.15V32.41H221.25V32.42Z" fill="#303434"/>
<path d="M247.66 32.42V0H260.45C264.13 0 266.99 0.960005 269.02 2.88C271.05 4.8 272.07 7.37 272.07 10.59C272.07 12.81 271.58 14.7 270.59 16.27C269.6 17.84 268.19 19.02 266.34 19.82L273.22 32.42H265.65L259.51 20.93H254.51V32.42H247.66ZM254.51 15.42H259.16C263.05 15.42 265 13.81 265 10.59C265 7.27 263.04 5.6 259.13 5.6H254.51V15.42V15.42Z" fill="#303434"/>
<path d="M276.01 32.42V0H288.8C292.48 0 295.34 0.960005 297.37 2.88C299.4 4.8 300.42 7.37 300.42 10.59C300.42 12.81 299.93 14.7 298.94 16.27C297.95 17.84 296.54 19.02 294.69 19.82L301.57 32.42H294L287.86 20.93H282.86V32.42H276.01ZM282.86 15.42H287.51C291.4 15.42 293.35 13.81 293.35 10.59C293.35 7.27 291.39 5.6 287.48 5.6H282.86V15.42V15.42Z" fill="#303434"/>
<path d="M302.47 0H310.15L317.54 13.96H317.86L325.25 0H332.92L321.1 20.96V32.42H314.29V20.96L302.47 0Z" fill="#303434"/>
<path d="M36.04 20.4101H0C0 9.32008 8.99001 0.330078 20.08 0.330078H36.04V20.4101Z" fill="#710FD8"/>
<path d="M72.0699 20.4101H41.4199C41.4199 9.32008 50.4099 0.330078 61.4999 0.330078H72.0799V20.4101H72.0699Z" fill="#25D838"/>
<path d="M51.9999 46.3598H41.4199V26.2798H72.0699C72.0699 37.3698 63.0799 46.3598 51.9999 46.3598Z" fill="#25D838"/>
<path d="M51.9999 72.3002H25.6299V52.2202H72.0699C72.0699 63.3202 63.0799 72.3002 51.9999 72.3002Z" fill="#710FD8"/>
<path d="M36.04 26.2798H0V40.4298V46.3498V53.1798C0 63.7398 8.56 72.2998 19.12 72.2998H20.08V46.3498H36.04V26.2798V26.2798Z" fill="#710FD8"/>
<path d="M93.3324 72.8061H86L97.1724 40.4425H105.99L117.147 72.8061H109.814L101.708 47.8381H101.455L93.3324 72.8061ZM92.8741 60.0851H110.194V65.4263H92.8741V60.0851Z" fill="#303434"/>
<path d="M127.885 40.4425V72.8061H121.042V40.4425H127.885Z" fill="#303434"/>
<path d="M149.392 72.8061H142.06L153.232 40.4425H162.05L173.206 72.8061H165.874L157.767 47.8381H157.514L149.392 72.8061ZM148.934 60.0851H166.253V65.4263H148.934V60.0851Z" fill="#303434"/>
<path d="M193.92 49.7502C193.793 48.4754 193.251 47.4851 192.292 46.7793C191.333 46.0734 190.032 45.7205 188.389 45.7205C187.272 45.7205 186.329 45.8786 185.56 46.1946C184.791 46.5001 184.201 46.9268 183.79 47.4746C183.39 48.0224 183.19 48.644 183.19 49.3393C183.169 49.9187 183.29 50.4244 183.553 50.8564C183.827 51.2883 184.201 51.6623 184.675 51.9783C185.149 52.2839 185.697 52.5525 186.319 52.7843C186.94 53.0055 187.604 53.1951 188.31 53.3532L191.217 54.0485C192.629 54.3645 193.925 54.7859 195.105 55.3127C196.285 55.8394 197.307 56.4873 198.171 57.2564C199.034 58.0254 199.703 58.9315 200.177 59.9744C200.662 61.0174 200.91 62.2131 200.92 63.5616C200.91 65.5422 200.404 67.2594 199.403 68.7132C198.413 70.1565 196.98 71.2785 195.105 72.0792C193.24 72.8693 190.991 73.2644 188.357 73.2644C185.744 73.2644 183.469 72.8641 181.53 72.0634C179.602 71.2627 178.096 70.0775 177.011 68.5078C175.936 66.9276 175.373 64.9733 175.32 62.6451H181.941C182.015 63.7302 182.326 64.6362 182.874 65.3631C183.432 66.0795 184.175 66.622 185.102 66.9908C186.039 67.349 187.098 67.5281 188.278 67.5281C189.437 67.5281 190.443 67.3595 191.296 67.0224C192.16 66.6853 192.829 66.2164 193.303 65.6159C193.777 65.0154 194.014 64.3254 194.014 63.5458C194.014 62.8189 193.798 62.2079 193.367 61.7127C192.945 61.2176 192.324 60.7962 191.502 60.4485C190.691 60.1009 189.695 59.7848 188.515 59.5004L184.991 58.6154C182.263 57.9517 180.108 56.914 178.528 55.5023C176.948 54.0906 176.163 52.189 176.173 49.7976C176.163 47.8381 176.684 46.1261 177.738 44.6618C178.802 43.1974 180.261 42.0543 182.115 41.2326C183.969 40.4109 186.076 40 188.436 40C190.838 40 192.935 40.4109 194.726 41.2326C196.527 42.0543 197.928 43.1974 198.929 44.6618C199.93 46.1261 200.446 47.8223 200.478 49.7502H193.92Z" fill="#303434"/>
<path d="M223.079 49.7502C222.953 48.4754 222.41 47.4851 221.452 46.7793C220.493 46.0734 219.192 45.7205 217.548 45.7205C216.432 45.7205 215.489 45.8786 214.72 46.1946C213.951 46.5001 213.361 46.9268 212.95 47.4746C212.55 48.0224 212.349 48.644 212.349 49.3393C212.328 49.9187 212.449 50.4244 212.713 50.8564C212.987 51.2883 213.361 51.6623 213.835 51.9783C214.309 52.2839 214.857 52.5525 215.478 52.7843C216.1 53.0055 216.764 53.1951 217.469 53.3532L220.377 54.0485C221.789 54.3645 223.085 54.7859 224.264 55.3127C225.444 55.8394 226.466 56.4873 227.33 57.2564C228.194 58.0254 228.863 58.9315 229.337 59.9744C229.822 61.0174 230.069 62.2131 230.08 63.5616C230.069 65.5422 229.564 67.2594 228.563 68.7132C227.572 70.1565 226.14 71.2785 224.264 72.0792C222.4 72.8693 220.151 73.2644 217.517 73.2644C214.904 73.2644 212.629 72.8641 210.69 72.0634C208.762 71.2627 207.256 70.0775 206.171 68.5078C205.096 66.9276 204.532 64.9733 204.48 62.6451H211.101C211.175 63.7302 211.485 64.6362 212.033 65.3631C212.592 66.0795 213.334 66.622 214.261 66.9908C215.199 67.349 216.258 67.5281 217.438 67.5281C218.597 67.5281 219.603 67.3595 220.456 67.0224C221.32 66.6853 221.989 66.2164 222.463 65.6159C222.937 65.0154 223.174 64.3254 223.174 63.5458C223.174 62.8189 222.958 62.2079 222.526 61.7127C222.105 61.2176 221.483 60.7962 220.661 60.4485C219.85 60.1009 218.855 59.7848 217.675 59.5004L214.151 58.6154C211.422 57.9517 209.268 56.914 207.688 55.5023C206.107 54.0906 205.322 52.189 205.333 49.7976C205.322 47.8381 205.844 46.1261 206.897 44.6618C207.961 43.1974 209.421 42.0543 211.275 41.2326C213.129 40.4109 215.236 40 217.596 40C219.998 40 222.094 40.4109 223.885 41.2326C225.687 42.0543 227.088 43.1974 228.089 44.6618C229.09 46.1261 229.606 47.8223 229.637 49.7502H223.079Z" fill="#303434"/>
<path d="M241.525 40.4425V72.8061H234.682V40.4425H241.525Z" fill="#303434"/>
<path d="M264.711 49.7502C264.585 48.4754 264.042 47.4851 263.083 46.7793C262.125 46.0734 260.824 45.7205 259.18 45.7205C258.064 45.7205 257.121 45.8786 256.352 46.1946C255.583 46.5001 254.993 46.9268 254.582 47.4746C254.181 48.0224 253.981 48.644 253.981 49.3393C253.96 49.9187 254.081 50.4244 254.345 50.8564C254.619 51.2883 254.993 51.6623 255.467 51.9783C255.941 52.2839 256.489 52.5525 257.11 52.7843C257.732 53.0055 258.395 53.1951 259.101 53.3532L262.009 54.0485C263.421 54.3645 264.716 54.7859 265.896 55.3127C267.076 55.8394 268.098 56.4873 268.962 57.2564C269.826 58.0254 270.495 58.9315 270.969 59.9744C271.454 61.0174 271.701 62.2131 271.712 63.5616C271.701 65.5422 271.195 67.2594 270.195 68.7132C269.204 70.1565 267.772 71.2785 265.896 72.0792C264.032 72.8693 261.782 73.2644 259.149 73.2644C256.536 73.2644 254.26 72.8641 252.322 72.0634C250.394 71.2627 248.887 70.0775 247.802 68.5078C246.728 66.9276 246.164 64.9733 246.112 62.6451H252.733C252.807 63.7302 253.117 64.6362 253.665 65.3631C254.223 66.0795 254.966 66.622 255.893 66.9908C256.831 67.349 257.89 67.5281 259.07 67.5281C260.228 67.5281 261.235 67.3595 262.088 67.0224C262.952 66.6853 263.621 66.2164 264.095 65.6159C264.569 65.0154 264.806 64.3254 264.806 63.5458C264.806 62.8189 264.59 62.2079 264.158 61.7127C263.737 61.2176 263.115 60.7962 262.293 60.4485C261.482 60.1009 260.487 59.7848 259.307 59.5004L255.783 58.6154C253.054 57.9517 250.9 56.914 249.319 55.5023C247.739 54.0906 246.954 52.189 246.965 49.7976C246.954 47.8381 247.476 46.1261 248.529 44.6618C249.593 43.1974 251.052 42.0543 252.907 41.2326C254.761 40.4109 256.868 40 259.228 40C261.63 40 263.726 40.4109 265.517 41.2326C267.319 42.0543 268.72 43.1974 269.721 44.6618C270.721 46.1261 271.238 47.8223 271.269 49.7502H264.711Z" fill="#303434"/>
<path d="M275.082 46.084V40.4425H301.661V46.084H291.753V72.8061H284.99V46.084H275.082Z" fill="#303434"/>
<path d="M307.662 72.8061H300.33L311.502 40.4425H320.32L331.477 72.8061H324.145L316.038 47.8381H315.785L307.662 72.8061ZM307.204 60.0851H324.524V65.4263H307.204V60.0851Z" fill="#303434"/>
<path d="M362.442 40.4425V72.8061H356.532L342.452 52.4366H342.215V72.8061H335.372V40.4425H341.377L355.347 60.7962H355.631V40.4425H362.442Z" fill="#303434"/>
<path d="M366.863 46.084V40.4425H393.443V46.084H383.534V72.8061H376.771V46.084H366.863Z" fill="#303434"/>
</svg>
