<svg width="73" height="72" viewBox="0 0 73 72" fill="none" xmlns="http://www.w3.org/2000/svg">
<path d="M36.04 20.08H0C0 8.99 8.99001 0 20.08 0H36.04V20.08Z" fill="white"/>
<path d="M72.0699 20.08H41.4199C41.4199 8.99 50.4099 0 61.4999 0H72.0799V20.08H72.0699Z" fill="white"/>
<path d="M51.9999 46.0297H41.4199V25.9497H72.0699C72.0699 37.0397 63.0799 46.0297 51.9999 46.0297Z" fill="white"/>
<path d="M51.9999 71.9701H25.6299V51.8901H72.0699C72.0699 62.9901 63.0799 71.9701 51.9999 71.9701Z" fill="white"/>
<path d="M36.04 25.9497H0V40.0997V46.0197V52.8497C0 63.4097 8.56 71.9697 19.12 71.9697H20.08V46.0197H36.04V25.9497V25.9497Z" fill="white"/>
</svg>
