<svg xmlns="http://www.w3.org/2000/svg" version="1.1" xmlns:xlink="http://www.w3.org/1999/xlink" xmlns:svgjs="http://svgjs.com/svgjs" width="512" height="512" x="0" y="0" viewBox="0 0 468 468" style="enable-background:new 0 0 512 512" xml:space="preserve" class=""><g><path fill="#68607c" d="M447.052 380.85H20.948c-7.901 0-14.306-6.405-14.306-14.306V85.159c0-7.901 6.405-14.306 14.306-14.306h426.105c7.901 0 14.306 6.405 14.306 14.306v281.385c-.001 7.901-6.406 14.306-14.307 14.306z" data-original="#131c46" class=""></path><path fill="#ffffff" d="M24.288 88.499h419.424v274.705H24.288z" data-original="#ffffff" class=""></path><path fill="#e2d2f7" d="M205.209 119.003h207.999v111.771H205.209z" data-original="#e2d2f7" class=""></path><path fill="#91cbd7" d="M397.658 171.824c-26.963 28.736-42.734-1.833-47.941-15.133-2.342-5.981-5.988-11.41-10.813-15.678-18.798-16.624-34.123-.016-41.143 10.402-2.001 2.97-3.67 6.148-5.12 9.423-3.898 8.805-19.52 37.837-48.59 16.761-19.001-13.775-28.993-11.709-34.054-7.465-3.129 2.624-4.788 6.611-4.788 10.695v49.944h207.999v-73.361c-4.355 3.186-9.37 7.825-15.55 14.412z" data-original="#61ceac" class=""></path><path fill="#4e9bb9" d="M216.872 169.167c0-.695.066-1.384.161-2.067-3.022.402-5.315 1.592-7.036 3.035-3.129 2.624-4.788 6.611-4.788 10.695v49.944h207.999v-11.663h-157.46c-21.471 0-38.876-17.406-38.876-38.876z" data-original="#52c1a1" class=""></path><path fill="#e2d2f7" d="M413.208 263.321H205.209a2.044 2.044 0 1 1 0-4.088h207.999a2.044 2.044 0 1 1 0 4.088zM413.208 298.909H205.209a2.044 2.044 0 1 1 0-4.088h207.999a2.044 2.044 0 1 1 0 4.088zM174.263 263.321H55.366a2.044 2.044 0 1 1 0-4.088h118.896a2.044 2.044 0 0 1 .001 4.088zM174.263 298.909H55.366a2.044 2.044 0 1 1 0-4.088h118.896a2.044 2.044 0 0 1 .001 4.088zM413.208 334.49H205.209a2.044 2.044 0 1 1 0-4.088h207.999a2.044 2.044 0 1 1 0 4.088zM174.263 334.49H55.366a2.044 2.044 0 1 1 0-4.088h118.896a2.044 2.044 0 0 1 .001 4.088zM174.263 192.146H55.366a2.044 2.044 0 1 1 0-4.088h118.896a2.044 2.044 0 0 1 .001 4.088zM174.263 227.734H55.366a2.044 2.044 0 1 1 0-4.088h118.896a2.044 2.044 0 0 1 .001 4.088zM174.263 120.971H55.366a2.044 2.044 0 1 1 0-4.088h118.896a2.044 2.044 0 0 1 .001 4.088zM174.263 156.559H55.366a2.044 2.044 0 1 1 0-4.088h118.896a2.044 2.044 0 0 1 .001 4.088z" data-original="#e2d2f7" class=""></path><path fill="#f0e8f9" d="M228.074 317.197h222.199V468H228.074z" data-original="#f0e8f9" class=""></path><path fill="#865acc" d="M436.139 349.541H321.013a2.044 2.044 0 1 1 0-4.088h115.126a2.044 2.044 0 1 1 0 4.088z" data-original="#865acc" class=""></path><path fill="#68607c" d="M436.139 379.492h-37.363a2.044 2.044 0 1 1 0-4.088h37.363a2.044 2.044 0 1 1 0 4.088zM378.576 379.492h-37.363a2.044 2.044 0 1 1 0-4.088h37.363a2.044 2.044 0 1 1 0 4.088z" data-original="#ff33a8" class=""></path><path fill="#865acc" d="M319.341 379.492h-77.132a2.044 2.044 0 1 1 0-4.088h77.132a2.044 2.044 0 1 1 0 4.088zM436.139 409.792H290.713a2.044 2.044 0 1 1 0-4.088h145.426a2.044 2.044 0 1 1 0 4.088z" data-original="#865acc" class=""></path><path fill="#68607c" d="M268.841 409.792h-26.632a2.044 2.044 0 1 1 0-4.088h26.632a2.044 2.044 0 1 1 0 4.088zM436.139 439.744H310.912a2.044 2.044 0 1 1 0-4.088h125.226a2.044 2.044 0 0 1 .001 4.088z" data-original="#ff33a8" class=""></path><path fill="#865acc" d="M289.041 439.744h-46.832a2.044 2.044 0 1 1 0-4.088h46.832a2.044 2.044 0 1 1 0 4.088zM228.074 276.797h222.199v40.4H228.074z" data-original="#865acc" class=""></path><circle cx="248.406" cy="296.997" r="8.08" fill="#ffffff" data-original="#ffffff" class=""></circle><circle cx="278.706" cy="296.997" r="8.08" fill="#ffffff" data-original="#ffffff" class=""></circle><circle cx="309.005" cy="296.997" r="8.08" fill="#ffffff" data-original="#ffffff" class=""></circle><path fill="#68607c" d="M261.324 359.581c-.452 0-.906-.149-1.284-.455l-11.275-9.117c-1.002-.769-1.001-2.409 0-3.178l11.275-9.117a2.043 2.043 0 1 1 2.57 3.178l-9.309 7.528 9.309 7.528c1.509 1.133.562 3.702-1.286 3.633zM285.612 359.581c-1.848.07-2.794-2.5-1.286-3.633l9.309-7.528-9.309-7.528a2.043 2.043 0 1 1 2.57-3.178l11.275 9.117c1.002.769 1.001 2.409 0 3.178l-11.275 9.117a2.037 2.037 0 0 1-1.284.455zM271.103 359.641c-1.283.014-2.288-1.222-1.999-2.476l3.969-18.353a2.043 2.043 0 1 1 3.994.864l-3.969 18.353a2.042 2.042 0 0 1-1.995 1.612z" data-original="#ff33a8" class=""></path><path fill="#f0e8f9" d="M38.056 36.727h201.999V156.21H38.056z" data-original="#f0e8f9" class=""></path><path fill="#91cbd7" d="M38.056 0h201.999v36.727H38.056z" data-original="#f955af" class=""></path><circle cx="56.539" cy="18.364" r="7.345" fill="#ffffff" data-original="#ffffff" class=""></circle><circle cx="84.084" cy="18.364" r="7.345" fill="#ffffff" data-original="#ffffff" class=""></circle><circle cx="111.63" cy="18.364" r="7.345" fill="#ffffff" data-original="#ffffff" class=""></circle><path fill="#f69489" d="M200.134 75.171h21.557v81.039h-21.557z" data-original="#ff8f33" class=""></path><path fill="#ed6571" d="M208.309 75.171h-8.175v81.039h21.557v-8.175h-3.164c-5.643 0-10.218-4.575-10.218-10.218z" data-original="#ff740d" class=""></path><path fill="#ffffff" d="M164.205 84.353h21.557v71.857h-21.557z" data-original="#ffffff" class=""></path><path fill="#e2d2f7" d="M172.38 84.353h-8.175v71.857h21.557v-8.175h-3.164c-5.643 0-10.218-4.575-10.218-10.218z" data-original="#e2d2f7" class=""></path><path fill="#91cbd7" d="M128.277 111.898h21.557v44.312h-21.557z" data-original="#f955af" class=""></path><path fill="#4e9bb9" d="M136.451 111.898h-8.175v44.312h21.557v-8.175h-3.164c-5.643 0-10.218-4.575-10.218-10.218z" data-original="#ef009f" class=""></path><path fill="#865acc" d="M92.348 65.989h21.557v90.221H92.348z" data-original="#865acc" class=""></path><path fill="#6a42ba" d="M100.522 65.989h-8.175v90.221h21.557v-8.175h-3.164c-5.643 0-10.218-4.575-10.218-10.218z" data-original="#6a42ba" class=""></path><path fill="#ffd086" d="M56.419 102.716h21.557v53.494H56.419z" data-original="#ffc31a" class=""></path><path fill="#ffaf00" d="M64.594 102.716h-8.175v53.494h21.557v-8.175h-3.164c-5.643 0-10.218-4.575-10.218-10.218z" data-original="#ffaf00" class=""></path><path fill="#f69489" d="m93.613 327.821-11.497-10.315a9.94 9.94 0 0 0-6.637-2.541H33.882c-8.783 0-15.902 7.12-15.902 15.902v77.298h171.876v-61.948c0-8.787-7.126-15.908-15.913-15.902l-73.686.048a9.94 9.94 0 0 1-6.644-2.542z" data-original="#ff8f33" class=""></path><path fill="#ed6571" d="M46.144 314.964H33.882c-8.783 0-15.902 7.12-15.902 15.902v77.298h12.262v-77.298c0-8.782 7.119-15.902 15.902-15.902z" data-original="#ff740d" class=""></path><path fill="#ffffff" d="M29.958 345.908h147.919v48.19H29.958z" data-original="#ffffff" class=""></path><path fill="#ffd086" d="M173.506 451.413H34.329c-9.029 0-16.349-7.32-16.349-16.349v-72.51h171.876v72.51c-.001 9.03-7.321 16.349-16.35 16.349z" data-original="#ffc31a" class=""></path><path fill="#ffaf00" d="M91.552 439.151c-33.861 0-61.31-27.449-61.31-61.31v-15.287H17.98v72.51c0 9.029 7.32 16.349 16.349 16.349h139.177c7.769 0 14.259-5.424 15.923-12.688-1.179.27-2.401.426-3.661.426z" data-original="#ffaf00" class=""></path><path fill="#ffffff" d="M164.861 430.113h-25.979a3.066 3.066 0 0 1 0-6.13h25.979a3.066 3.066 0 0 1 0 6.13zM164.861 405.747h-42.216a3.066 3.066 0 0 1 0-6.131h42.216a3.066 3.066 0 0 1 0 6.131z" data-original="#ffffff" class=""></path><circle cx="329.239" cy="68.033" r="35.764" fill="#ffd086" data-original="#ffc31a" class=""></circle><path fill="#ffaf00" d="M305.737 68.033c0-17.661 12.804-32.321 29.633-35.23a35.9 35.9 0 0 0-6.131-.534c-19.752 0-35.764 16.012-35.764 35.764s16.012 35.764 35.764 35.764c2.092 0 4.138-.19 6.131-.534-16.829-2.909-29.633-17.57-29.633-35.23z" data-original="#ffaf00" class=""></path><path fill="#ffffff" d="m320.185 81.064-8.151-7.93c-.73-.71-.922-1.867-.338-2.702a2.045 2.045 0 0 1 3.109-.305l6.797 6.612 21.984-21.652c.726-.715 1.886-.882 2.708-.281a2.044 2.044 0 0 1 .239 3.114l-23.488 23.134a2.057 2.057 0 0 1-2.86.01z" data-original="#ffffff" class=""></path></g></svg>