<svg width="86" height="72" viewBox="0 0 86 72" fill="none" xmlns="http://www.w3.org/2000/svg">
<g clip-path="url(#clip0_13_215)">
<path d="M7.41679 31.2C8.19919 31.2 8.83346 30.6628 8.83346 30C8.83346 29.3373 8.19919 28.8 7.41679 28.8C6.63439 28.8 6.00012 29.3373 6.00012 30C6.00012 30.6628 6.63439 31.2 7.41679 31.2Z" fill="white"/>
<path d="M7.41679 40.7999C8.19919 40.7999 8.83346 40.2626 8.83346 39.5999C8.83346 38.9372 8.19919 38.3999 7.41679 38.3999C6.63439 38.3999 6.00012 38.9372 6.00012 39.5999C6.00012 40.2626 6.63439 40.7999 7.41679 40.7999Z" fill="white"/>
<path d="M7.41679 50.4C8.19919 50.4 8.83346 49.8627 8.83346 49.2C8.83346 48.5373 8.19919 48 7.41679 48C6.63439 48 6.00012 48.5373 6.00012 49.2C6.00012 49.8627 6.63439 50.4 7.41679 50.4Z" fill="white"/>
<path d="M81.0835 4.8H69.7502C68.9678 4.8 68.3335 4.26274 68.3335 3.6C68.3335 1.61177 66.4307 0 64.0835 0H55.5835C53.2363 0 51.3335 1.61177 51.3335 3.6V12H47.0835C44.7363 12 42.8335 13.6118 42.8335 15.6V34.8H37.1668V21.6C37.158 21.5247 37.1404 21.4504 37.1144 21.378C37.1405 21.253 37.158 21.1268 37.1668 21C37.1668 16.7136 27.6752 14.4 18.7502 14.4C9.82516 14.4 0.333496 16.7136 0.333496 21C0.342321 21.1268 0.359823 21.253 0.385913 21.378C0.359904 21.4504 0.342348 21.5247 0.333496 21.6V50.4C0.333496 54.3396 9.5985 56.4 18.7502 56.4C27.9018 56.4 37.1668 54.3396 37.1668 50.4V37.2H42.8335V56.4C42.8335 58.3882 44.7363 60 47.0835 60H51.3335V68.4C51.3335 70.3882 53.2363 72 55.5835 72H81.0835C83.4307 72 85.3335 70.3882 85.3335 68.4V58.8C85.3335 56.8118 83.4307 55.2 81.0835 55.2H69.7502C68.9678 55.2 68.3335 54.6627 68.3335 54C68.3335 52.0118 66.4307 50.4 64.0835 50.4H55.5835C53.2363 50.4 51.3335 52.0118 51.3335 54V57.6H47.0835C46.3011 57.6 45.6668 57.0627 45.6668 56.4V37.2H51.3335V43.2C51.3335 45.1882 53.2363 46.8 55.5835 46.8H81.0835C83.4307 46.8 85.3335 45.1882 85.3335 43.2V33.6C85.3335 31.6118 83.4307 30 81.0835 30H69.7502C68.9678 30 68.3335 29.4627 68.3335 28.8C68.3335 26.8118 66.4307 25.2 64.0835 25.2H55.5835C53.2363 25.2 51.3335 26.8118 51.3335 28.8V34.8H45.6668V15.6C45.6668 14.9373 46.3011 14.4 47.0835 14.4H51.3335V18C51.3335 19.9882 53.2363 21.6 55.5835 21.6H81.0835C83.4307 21.6 85.3335 19.9882 85.3335 18V8.4C85.3335 6.41178 83.4307 4.8 81.0835 4.8ZM34.3335 31.2C34.3335 32.4216 28.8326 34.8 18.7502 34.8C8.66775 34.8 3.16683 32.4216 3.16683 31.2V24.6252C6.64475 26.5716 12.8129 27.6 18.7502 27.6C24.6874 27.6 30.8556 26.5716 34.3335 24.6252V31.2ZM3.16683 34.5396C6.60366 36.2916 12.6939 37.2 18.7502 37.2C24.8064 37.2 30.8967 36.2916 34.3335 34.5396V40.8C34.3335 42.0216 28.8326 44.4 18.7502 44.4C8.66775 44.4 3.16683 42.0216 3.16683 40.8V34.5396ZM18.7502 16.8C28.2631 16.8 34.3335 19.2876 34.3335 21C34.3335 22.7124 28.2631 25.2 18.7502 25.2C9.23725 25.2 3.16683 22.7124 3.16683 21C3.16683 19.2876 9.23725 16.8 18.7502 16.8ZM18.7502 54C8.66775 54 3.16683 51.6216 3.16683 50.4V44.1396C6.60366 45.8916 12.6939 46.8 18.7502 46.8C24.8064 46.8 30.8967 45.8916 34.3335 44.1396V50.4C34.3335 51.6216 28.8326 54 18.7502 54ZM54.1668 54C54.1668 53.3373 54.8011 52.8 55.5835 52.8H64.0835C64.8659 52.8 65.5002 53.3373 65.5002 54C65.5002 55.9882 67.403 57.6 69.7502 57.6H81.0835C81.8659 57.6 82.5002 58.1373 82.5002 58.8V68.4C82.5002 69.0627 81.8659 69.6 81.0835 69.6H55.5835C54.8011 69.6 54.1668 69.0627 54.1668 68.4V54ZM54.1668 28.8C54.1668 28.1373 54.8011 27.6 55.5835 27.6H64.0835C64.8659 27.6 65.5002 28.1373 65.5002 28.8C65.5002 30.7882 67.403 32.4 69.7502 32.4H81.0835C81.8659 32.4 82.5002 32.9373 82.5002 33.6V43.2C82.5002 43.8627 81.8659 44.4 81.0835 44.4H55.5835C54.8011 44.4 54.1668 43.8627 54.1668 43.2V28.8ZM82.5002 18C82.5002 18.6627 81.8659 19.2 81.0835 19.2H55.5835C54.8011 19.2 54.1668 18.6627 54.1668 18V3.6C54.1668 2.93726 54.8011 2.4 55.5835 2.4H64.0835C64.8659 2.4 65.5002 2.93726 65.5002 3.6C65.5002 5.58823 67.403 7.2 69.7502 7.2H81.0835C81.8659 7.2 82.5002 7.73726 82.5002 8.4V18Z" fill="white"/>
<path d="M58.4168 16.7999C59.1992 16.7999 59.8335 16.2626 59.8335 15.5999C59.8335 14.9372 59.1992 14.3999 58.4168 14.3999C57.6344 14.3999 57.0001 14.9372 57.0001 15.5999C57.0001 16.2626 57.6344 16.7999 58.4168 16.7999Z" fill="white"/>
<path d="M58.4168 12.0001C59.1992 12.0001 59.8335 11.4628 59.8335 10.8001C59.8335 10.1374 59.1992 9.6001 58.4168 9.6001C57.6344 9.6001 57.0001 10.1374 57.0001 10.8001C57.0001 11.4628 57.6344 12.0001 58.4168 12.0001Z" fill="white"/>
<path d="M58.4168 42.0001C59.1992 42.0001 59.8335 41.4628 59.8335 40.8001C59.8335 40.1374 59.1992 39.6001 58.4168 39.6001C57.6344 39.6001 57.0001 40.1374 57.0001 40.8001C57.0001 41.4628 57.6344 42.0001 58.4168 42.0001Z" fill="white"/>
<path d="M58.4168 37.2C59.1992 37.2 59.8335 36.6628 59.8335 36C59.8335 35.3373 59.1992 34.8 58.4168 34.8C57.6344 34.8 57.0001 35.3373 57.0001 36C57.0001 36.6628 57.6344 37.2 58.4168 37.2Z" fill="white"/>
<path d="M58.4168 67.2C59.1992 67.2 59.8335 66.6628 59.8335 66C59.8335 65.3373 59.1992 64.8 58.4168 64.8C57.6344 64.8 57.0001 65.3373 57.0001 66C57.0001 66.6628 57.6344 67.2 58.4168 67.2Z" fill="white"/>
<path d="M58.4168 62.4C59.1992 62.4 59.8335 61.8627 59.8335 61.2C59.8335 60.5373 59.1992 60 58.4168 60C57.6344 60 57.0001 60.5373 57.0001 61.2C57.0001 61.8627 57.6344 62.4 58.4168 62.4Z" fill="white"/>
</g>
<defs>
<clipPath id="clip0_13_215">
<rect width="85" height="72" fill="white" transform="translate(0.333496)"/>
</clipPath>
</defs>
</svg>
